<svg xmlns="http://www.w3.org/2000/svg" width="1024" height="1024" viewBox="0 0 1024 1024">
<g>
<path d="M 829.64 403.06 C827.27,397.72 824.00,392.74 820.02,388.60 C809.30,377.44 797.78,373.50 778.00,374.26 C771.12,374.52 764.83,374.91 764.00,375.12 C761.55,375.74 762.50,370.70 767.39,357.00 C771.60,345.23 775.19,334.22 801.42,252.50 C819.78,195.29 824.29,181.58 825.69,178.75 L 827.05 176.00 L 872.09 176.00 C899.61,176.00 917.84,176.38 918.96,176.98 C919.27,177.14 919.53,177.28 919.74,177.47 C921.12,178.78 919.94,182.80 910.35,215.92 C905.65,232.19 900.46,250.23 898.83,256.00 C897.20,261.77 893.23,275.27 890.01,286.00 C886.79,296.73 883.49,307.98 882.69,311.00 C882.58,311.40 882.41,312.02 882.19,312.83 C882.29,311.64 881.91,310.69 880.99,309.73 C878.94,307.59 878.14,308.36 875.57,315.00 C874.62,317.48 873.23,320.17 872.49,321.00 C871.76,321.83 870.21,325.02 869.06,328.11 C867.91,331.19 865.66,335.69 864.06,338.11 C862.46,340.52 860.19,345.06 859.02,348.20 C857.73,351.66 856.15,354.13 855.01,354.50 C853.97,354.83 852.59,356.76 851.94,358.80 C851.29,360.83 849.93,363.40 848.93,364.51 C847.92,365.62 845.94,368.99 844.53,372.01 C843.11,375.03 840.63,379.52 839.00,382.00 C837.37,384.48 835.60,387.50 835.06,388.72 C834.23,390.59 827.75,394.51 825.95,394.22 C825.65,394.18 826.66,396.69 828.19,399.82 C828.70,400.87 829.19,401.95 829.64,403.06 ZM 727.50 521.42 C717.00,524.62 706.91,527.70 699.50,529.97 C669.15,539.28 589.81,559.90 572.62,563.04 C574.15,562.61 574.43,562.00 572.50,562.00 C571.49,562.00 570.97,561.69 571.35,561.32 C572.14,560.53 565.31,557.08 562.85,557.03 C560.23,556.98 554.81,550.19 555.54,547.87 C555.88,546.79 555.62,545.25 554.96,544.45 C554.11,543.43 554.09,543.00 554.88,543.00 C555.49,543.00 556.00,542.32 556.00,541.48 C556.00,540.65 557.35,537.43 559.00,534.34 C560.65,531.25 562.00,528.21 562.00,527.60 C562.00,526.98 563.54,522.93 565.43,518.60 C570.04,507.99 575.98,501.93 584.22,499.43 C587.56,498.42 589.66,497.39 588.89,497.15 C586.59,496.41 585.95,494.54 587.79,493.89 C590.35,492.97 561.28,492.11 528.79,492.13 C517.71,492.14 508.43,492.04 499.01,491.73 C528.80,492.42 579.92,492.19 596.50,491.07 C611.85,490.02 698.90,483.66 720.50,482.00 C732.14,481.10 793.74,475.88 815.00,473.98 C820.78,473.47 830.41,472.74 836.41,472.36 L 847.33 471.68 L 835.91 472.43 C820.23,473.47 807.13,474.66 809.29,474.85 C810.89,474.98 810.84,475.25 808.79,477.42 C806.86,479.47 804.92,480.03 796.50,481.02 C791.00,481.66 786.05,482.54 785.50,482.98 C784.95,483.42 783.64,483.95 782.60,484.14 C781.53,484.34 780.54,485.51 780.35,486.80 C779.88,489.89 777.18,495.00 776.01,495.00 C775.50,495.00 774.27,495.84 773.29,496.86 C772.31,497.89 770.38,498.97 769.00,499.27 C765.49,500.03 754.94,504.12 745.50,508.37 C741.10,510.35 736.51,511.98 735.31,511.99 C734.10,511.99 732.84,512.45 732.50,513.00 C732.16,513.55 729.88,514.51 727.43,515.12 C722.13,516.46 713.00,522.18 715.09,522.85 C715.87,523.10 716.72,523.62 717.00,524.01 C717.15,524.22 721.21,523.20 727.50,521.42 ZM 648.00 472.01 C648.00,471.57 653.96,467.72 661.25,463.47 C683.79,450.31 697.87,442.02 714.50,432.10 C733.92,420.53 753.07,410.93 762.50,408.04 C766.35,406.86 773.79,405.63 779.04,405.31 C785.84,404.89 792.05,405.22 797.84,406.36 C797.36,406.37 797.20,406.52 797.39,406.82 C797.69,407.31 796.88,407.51 795.59,407.26 C791.50,406.48 791.81,408.74 796.20,411.69 C801.89,415.51 804.05,420.82 801.74,425.35 C800.86,427.08 799.82,429.62 799.44,431.00 C797.36,438.44 787.73,452.00 784.52,452.00 C783.85,452.00 781.53,453.28 779.36,454.86 C777.06,456.52 773.39,458.01 770.54,458.44 C767.09,458.96 766.08,459.44 767.08,460.07 C768.08,460.70 768.13,460.97 767.25,460.98 C766.56,460.99 766.00,461.50 766.00,462.11 C766.00,462.21 766.02,462.30 766.05,462.38 C764.15,462.56 762.23,462.75 760.50,462.95 C745.60,464.61 684.62,469.90 667.50,471.02 C658.70,471.59 650.71,472.23 649.75,472.44 C648.79,472.64 648.00,472.45 648.00,472.01 ZM 523.02 614.52 C523.72,615.36 524.49,615.84 524.74,615.59 C525.00,615.33 524.97,614.90 524.76,614.46 C537.00,630.26 552.57,643.32 569.69,651.87 C583.71,658.88 603.83,665.94 623.57,671.14 C623.37,671.18 623.07,671.28 622.67,671.41 C621.66,671.73 620.39,672.00 619.84,672.00 C619.30,672.00 619.00,672.69 619.18,673.53 C619.35,674.37 623.33,676.96 628.00,679.28 C635.37,682.94 636.54,683.88 636.82,686.34 C637.04,688.19 636.53,689.62 635.36,690.48 C633.87,691.57 633.79,692.04 634.88,693.35 C635.97,694.67 635.77,695.32 633.58,697.51 C632.15,698.94 630.53,699.83 629.98,699.49 C628.99,698.88 628.05,700.43 627.62,703.39 C627.29,705.66 627.40,705.62 616.04,708.00 C610.29,709.21 603.45,711.04 600.84,712.06 C593.52,714.95 578.00,713.18 578.00,709.47 C578.00,708.81 577.15,707.18 576.10,705.86 C575.06,704.53 572.77,699.86 571.01,695.47 C566.19,683.41 562.19,675.52 555.34,664.50 C548.13,652.90 545.55,649.53 535.15,638.10 C523.95,625.81 522.10,623.01 521.65,617.62 C521.44,615.05 520.60,612.17 519.78,611.23 C518.97,610.28 517.99,608.83 517.61,608.00 C517.22,607.17 517.66,607.51 518.58,608.75 C519.49,609.99 520.63,611.00 521.10,611.00 C521.48,611.00 520.52,609.00 518.87,606.26 C520.52,608.76 522.26,611.19 524.07,613.57 C523.70,613.24 523.24,613.00 522.82,613.00 C522.16,613.00 522.23,613.57 523.02,614.52 ZM 659.90 663.54 C659.01,663.81 654.97,663.34 650.90,662.50 C629.66,658.08 610.71,648.81 596.65,635.96 C591.06,630.86 578.51,615.16 579.34,614.33 C579.58,614.09 584.30,616.86 589.83,620.49 C606.73,631.56 626.74,639.71 646.65,643.65 C658.54,645.99 680.42,646.00 692.27,643.66 C728.01,636.60 757.40,615.13 771.51,586.52 C769.09,591.53 766.31,596.27 763.60,599.90 C762.21,601.77 761.27,603.63 761.52,604.04 C761.77,604.44 761.20,605.39 760.24,606.14 C758.63,607.40 758.61,607.35 760.00,605.50 C761.39,603.65 761.37,603.60 759.76,604.86 C758.80,605.61 758.24,606.58 758.51,607.02 C759.61,608.80 753.27,618.46 746.46,625.37 C734.92,637.11 716.44,646.10 696.00,649.92 C686.23,651.75 680.53,653.04 675.50,654.54 C674.95,654.71 675.65,654.88 677.06,654.92 C678.47,654.96 680.46,655.62 681.50,656.37 C683.30,657.69 683.28,657.78 681.03,658.49 C679.75,658.90 673.92,659.37 668.10,659.55 C656.78,659.88 654.10,659.93 654.06,660.29 C654.04,660.43 654.41,660.61 654.84,660.88 C655.57,661.34 656.14,662.12 656.09,662.61 C656.05,663.10 657.56,663.51 659.46,663.53 C659.60,663.53 659.75,663.54 659.90,663.54 ZM 703.22 763.28 C703.11,763.41 702.99,763.55 702.87,763.69 C702.10,764.65 702.01,765.08 702.68,764.68 C703.38,764.26 704.11,764.79 704.50,765.99 C706.31,771.71 680.62,792.07 655.73,804.62 C652.86,806.07 650.28,807.59 650.00,807.99 C649.17,809.21 643.44,811.88 640.55,812.41 C639.05,812.68 637.26,813.37 636.57,813.94 C635.88,814.51 635.08,814.75 634.79,814.46 C634.50,814.17 634.39,815.08 634.55,816.49 C634.78,818.58 634.19,819.31 631.30,820.52 C629.36,821.33 626.02,823.79 623.89,826.00 C621.75,828.20 619.35,830.00 618.56,830.00 C617.77,830.00 615.04,831.80 612.50,834.00 C609.96,836.20 607.57,838.00 607.19,838.00 C606.81,838.00 605.25,836.68 603.73,835.08 C602.22,833.47 599.60,831.85 597.92,831.48 C595.86,831.03 595.03,830.35 595.39,829.42 C595.73,828.53 595.03,827.80 593.46,827.40 C592.11,827.06 591.00,826.45 591.00,826.04 C591.00,825.64 590.21,824.44 589.25,823.39 C587.63,821.62 582.34,821.15 573.05,821.98 C575.39,821.71 577.55,821.42 579.50,821.10 C612.75,815.69 643.90,804.21 671.21,787.31 C682.11,780.57 692.92,772.42 703.22,763.28 ZM 699.75 406.86 C707.31,402.37 709.29,401.12 710.50,400.23 L 712.50 398.75 L 710.50 399.38 C708.75,399.93 708.79,399.75 710.86,398.00 C712.16,396.90 712.91,396.00 712.53,396.00 C712.15,396.00 712.70,394.54 713.76,392.75 C715.32,390.11 715.61,388.02 715.33,381.56 C715.12,376.77 715.40,373.37 716.03,372.98 C717.40,372.13 716.16,369.00 714.44,369.00 C712.30,369.00 711.21,366.01 712.03,362.37 C712.45,360.51 712.42,357.34 711.96,355.32 C711.11,351.56 712.15,348.00 714.09,348.00 C714.35,348.00 714.52,347.90 714.60,347.73 C715.97,352.35 717.47,357.40 718.97,362.42 C723.39,377.22 727.00,389.69 727.00,390.13 C727.00,390.56 724.86,392.13 722.25,393.63 C719.64,395.12 711.65,399.80 704.50,404.05 C703.13,404.86 701.52,405.81 699.75,406.86 ZM 703.00 312.94 C703.00,313.52 703.45,314.00 704.00,314.00 C704.22,314.00 704.41,313.97 704.58,313.92 C706.88,321.71 708.54,327.31 709.03,329.00 C709.70,331.27 711.74,338.15 714.28,346.67 C713.86,346.11 713.49,346.21 713.01,346.98 C712.53,347.77 712.03,347.38 711.53,345.83 C711.12,344.55 710.83,343.16 710.89,342.75 C710.95,342.34 710.33,342.00 709.50,342.00 C708.67,342.00 708.00,341.33 708.00,340.50 C708.00,338.18 707.87,337.63 706.90,335.81 C706.34,334.76 706.37,333.89 707.00,333.50 C707.55,333.16 707.99,332.35 707.98,331.69 C707.98,330.96 707.61,331.06 707.05,331.96 C706.37,333.03 706.14,332.63 706.21,330.43 C706.31,326.84 699.13,301.64 697.87,301.16 C697.38,300.98 697.21,300.48 697.47,300.05 C697.74,299.61 696.81,295.32 695.42,290.51 C694.02,285.69 693.13,281.11 693.43,280.33 C693.73,279.54 693.60,279.13 693.14,279.42 C692.67,279.70 690.80,274.96 688.97,268.89 C686.35,260.22 685.91,257.67 686.93,257.05 C687.27,256.83 687.49,256.62 687.58,256.41 C688.48,259.49 689.41,262.61 690.33,265.73 C690.22,265.65 690.11,265.57 690.00,265.50 C689.45,265.16 689.00,265.36 689.00,265.94 C689.00,266.52 689.45,267.00 690.00,267.00 C690.26,267.00 690.49,266.96 690.67,266.89 C692.19,272.03 693.70,277.14 695.14,282.00 C696.95,288.13 698.74,294.17 700.40,299.78 C700.28,299.68 700.14,299.59 700.00,299.50 C699.45,299.16 699.00,299.36 699.00,299.94 C699.00,300.52 699.45,301.00 700.00,301.00 C700.28,301.00 700.54,300.95 700.72,300.87 C700.90,301.47 701.08,302.07 701.25,302.67 C701.17,302.61 701.09,302.55 701.00,302.50 C700.45,302.16 700.00,302.36 700.00,302.94 C700.00,303.52 700.45,304.00 701.00,304.00 C701.23,304.00 701.45,303.96 701.62,303.91 C702.53,307.01 703.40,309.94 704.20,312.63 C704.13,312.59 704.07,312.54 704.00,312.50 C703.45,312.16 703.00,312.36 703.00,312.94 ZM 681.00 238.94 C681.00,239.52 681.45,240.00 682.00,240.00 C682.27,240.00 682.52,239.95 682.70,239.87 C684.16,244.82 685.75,250.21 687.38,255.76 C687.33,255.71 687.27,255.66 687.19,255.62 C686.63,255.27 686.02,255.45 685.83,256.01 C685.63,256.62 684.60,256.41 683.28,255.49 C680.30,253.40 679.31,247.82 681.40,244.84 C682.28,243.58 682.99,242.09 682.98,241.53 C682.98,240.96 682.59,241.09 682.13,241.82 C681.11,243.43 677.57,231.57 678.41,229.36 C678.72,228.56 678.59,228.13 678.12,228.42 C677.66,228.71 675.32,222.41 672.94,214.41 C669.25,202.03 668.82,199.71 670.05,198.84 C670.21,198.73 670.34,198.63 670.45,198.55 C671.05,200.47 671.68,202.54 672.35,204.75 C672.24,204.66 672.12,204.58 672.00,204.50 C671.45,204.16 671.00,204.36 671.00,204.94 C671.00,205.52 671.45,206.00 672.00,206.00 C672.27,206.00 672.51,205.95 672.69,205.88 C673.00,206.88 673.31,207.92 673.63,208.98 C673.45,208.82 673.24,208.65 673.00,208.50 C672.45,208.16 672.00,208.36 672.00,208.94 C672.00,209.52 672.45,210.00 673.00,210.00 C673.37,210.00 673.69,209.91 673.86,209.78 C674.07,210.46 674.27,211.15 674.48,211.85 C674.34,211.73 674.17,211.61 674.00,211.50 C673.45,211.16 673.00,211.36 673.00,211.94 C673.00,212.52 673.45,213.00 674.00,213.00 C674.31,213.00 674.59,212.94 674.77,212.84 C674.96,213.46 675.14,214.09 675.33,214.73 C675.23,214.65 675.12,214.57 675.00,214.50 C674.45,214.16 674.00,214.36 674.00,214.94 C674.00,215.52 674.45,216.00 675.00,216.00 C675.26,216.00 675.49,215.96 675.67,215.89 C676.11,217.38 676.56,218.91 677.02,220.50 C677.38,221.72 677.78,223.11 678.24,224.66 C678.16,224.60 678.08,224.55 678.00,224.50 C677.45,224.16 677.00,224.36 677.00,224.94 C677.00,225.52 677.45,226.00 678.00,226.00 C678.23,226.00 678.44,225.97 678.60,225.91 C679.67,229.55 680.96,233.93 682.38,238.77 C682.26,238.67 682.13,238.58 682.00,238.50 C681.45,238.16 681.00,238.36 681.00,238.94 ZM 668.00 194.94 C668.00,195.52 668.45,196.00 669.00,196.00 C669.24,196.00 669.46,195.96 669.63,195.90 C669.86,196.64 670.10,197.40 670.34,198.18 C670.21,198.22 670.06,198.27 669.88,198.32 C668.64,198.72 667.86,197.51 666.51,193.03 C665.54,189.83 665.10,186.65 665.53,185.95 C666.07,185.08 665.91,184.94 665.00,185.50 C664.02,186.11 663.83,185.76 664.25,184.15 C664.56,182.97 664.41,182.25 663.91,182.56 C663.41,182.87 663.00,182.68 663.00,182.14 C663.00,181.61 663.34,180.98 663.75,180.75 C664.16,180.52 663.94,180.46 663.27,180.63 C662.59,180.79 661.56,180.04 660.98,178.96 C660.02,177.17 658.71,176.98 645.71,176.81 C632.42,176.64 632.05,176.58 640.00,175.97 C642.08,175.80 639.66,175.66 633.99,175.56 C655.02,175.69 661.34,176.04 662.29,176.82 C663.24,177.61 664.83,181.33 667.30,188.70 C667.20,188.63 667.10,188.56 667.00,188.50 C666.45,188.16 666.00,188.36 666.00,188.94 C666.00,189.52 666.45,190.00 667.00,190.00 C667.27,190.00 667.51,189.95 667.69,189.88 C668.17,191.34 668.69,192.93 669.24,194.66 C669.16,194.60 669.08,194.55 669.00,194.50 C668.45,194.16 668.00,194.36 668.00,194.94 ZM 731.53 734.13 C727.40,739.17 723.23,743.93 719.27,748.06 C713.50,754.08 709.13,759.00 709.57,759.00 C710.00,759.00 709.29,760.12 708.00,761.50 C705.70,763.94 703.27,764.99 704.50,763.00 C705.02,762.15 704.96,761.88 704.58,762.07 C714.12,753.48 723.22,744.06 731.53,734.13 ZM 645.17 676.07 C642.28,675.54 639.53,674.99 637.35,674.50 C631.77,673.26 625.92,672.45 624.35,672.70 C622.03,673.07 621.78,672.94 623.00,671.98 C623.49,671.60 623.79,671.35 623.87,671.22 C631.13,673.12 638.34,674.77 645.17,676.07 ZM 568.84 822.41 C567.63,822.55 566.35,822.71 565.03,822.88 C557.54,823.87 541.90,824.16 527.09,823.82 C541.24,824.04 556.74,823.54 568.84,822.41 ZM 801.61 611.81 C801.21,612.38 800.80,612.94 800.39,613.50 C790.52,626.88 778.16,637.72 763.50,645.94 C778.38,637.46 791.03,626.11 801.61,611.81 ZM 826.50 554.30 C824.75,564.63 821.26,575.53 816.42,586.16 C821.04,575.50 824.96,563.41 826.50,554.30 ZM 237.02 521.42 C237.03,536.54 238.28,550.19 240.82,562.60 C238.09,549.98 237.04,538.19 237.02,521.42 ZM 811.46 458.38 C796.80,459.87 780.82,461.35 775.00,461.66 C773.60,461.73 771.46,461.89 769.06,462.10 C770.54,461.82 772.83,461.59 775.00,461.53 C779.69,461.39 796.24,459.91 811.46,458.38 ZM 509.52 589.53 C505.73,581.45 502.53,572.59 499.96,563.09 C502.19,571.32 505.93,581.58 509.52,589.53 ZM 345.84 649.65 C362.59,648.59 380.10,643.98 393.00,636.72 L 400.50 632.50 L 393.50 636.48 C380.50,643.87 362.66,648.70 345.84,649.65 ZM 251.05 593.68 C252.50,596.71 254.06,599.65 255.74,602.50 C260.47,610.55 266.20,617.72 272.77,623.90 C263.90,615.64 256.67,605.58 251.05,593.68 ZM 816.63 413.71 C820.84,416.29 824.91,419.48 828.94,423.32 C825.08,419.64 820.80,416.32 816.63,413.71 ZM 876.96 331.17 C875.63,335.81 874.17,340.88 872.69,346.00 C870.57,353.29 868.22,361.44 866.04,369.00 C869.60,356.65 873.77,342.22 876.96,331.17 ZM 465.83 489.94 C459.41,489.49 452.34,488.95 444.32,488.32 C433.74,487.48 428.00,487.13 424.88,487.23 C428.00,487.13 433.74,487.48 444.32,488.31 C450.58,488.81 458.45,489.40 465.83,489.94 ZM 646.04 438.67 C651.79,435.19 664.38,427.70 674.00,422.04 C678.09,419.63 681.71,417.51 684.91,415.62 C681.08,417.88 677.30,420.11 674.00,422.05 C664.38,427.71 651.79,435.19 646.04,438.67 ZM 663.00 664.01 C662.97,663.99 662.94,663.97 662.91,663.95 C663.13,664.02 663.31,664.09 663.45,664.16 C663.23,664.11 663.08,664.06 663.00,664.01 Z" fill="rgba(3,157,215,1)"/>
<path d="M 504.50 874.96 C499.55,874.47 492.80,873.56 489.50,872.95 C486.20,872.34 482.15,871.66 480.50,871.44 C478.48,871.17 474.33,870.36 470.35,869.52 C474.00,870.13 477.37,870.43 478.30,870.08 C480.03,869.45 479.72,869.21 476.44,868.69 C473.16,868.16 472.48,867.65 472.36,865.61 C472.28,864.11 472.85,863.01 473.86,862.75 C474.76,862.52 482.02,863.15 490.00,864.15 C498.69,865.25 514.92,866.22 530.50,866.57 C544.80,866.90 557.12,867.36 557.89,867.60 C559.01,867.96 558.94,868.40 557.56,869.93 C555.94,871.72 555.95,871.85 557.67,872.30 C559.07,872.66 558.92,872.83 557.00,873.03 C555.15,873.22 555.53,873.46 558.50,873.97 C560.08,874.25 561.91,874.42 563.22,874.44 C545.28,875.65 515.33,876.05 504.50,874.96 ZM 623.37 861.75 C640.61,855.90 659.13,847.91 675.55,839.23 C658.62,848.35 641.13,855.91 623.37,861.75 ZM 783.76 749.32 C800.42,729.07 814.65,707.44 825.45,685.50 C814.52,707.71 800.71,728.87 783.76,749.32 ZM 565.15 874.30 C566.67,874.11 569.69,873.78 572.50,873.49 C578.47,872.87 589.91,870.71 599.86,868.43 C590.93,870.58 581.97,872.28 573.00,873.52 C570.96,873.81 568.28,874.07 565.15,874.30 ZM 704.87 762.22 C704.87,762.01 704.48,762.23 703.69,762.87 C703.53,763.00 703.38,763.13 703.25,763.25 C704.22,762.15 704.96,761.72 704.87,762.22 ZM 702.84 764.60 C702.87,764.58 702.90,764.56 702.93,764.54 C703.37,764.27 703.97,764.73 704.35,765.59 C703.98,764.76 703.41,764.38 702.84,764.60 ZM 708.00 761.50 C706.81,762.77 705.66,763.62 704.96,763.90 C705.70,763.57 706.87,762.71 708.00,761.50 ZM 461.29 867.39 C461.17,867.35 461.08,867.32 461.00,867.29 C460.17,866.97 458.60,866.54 457.50,866.34 C458.60,866.54 460.17,866.96 461.00,867.28 C461.09,867.32 461.19,867.36 461.29,867.39 ZM 704.44 763.10 C704.49,762.99 704.56,762.88 704.63,762.75 C704.70,762.64 704.75,762.55 704.79,762.47 C704.72,762.62 704.63,762.79 704.50,763.00 C704.48,763.03 704.46,763.07 704.44,763.10 Z" fill="rgba(25,70,83,1)"/>
<path d="M 831.90 671.39 C832.13,670.65 832.18,670.23 832.03,670.18 C831.46,669.99 831.00,669.39 831.00,668.86 C831.00,668.32 831.41,668.13 831.91,668.44 C832.41,668.75 832.58,668.10 832.29,666.99 C831.93,665.61 832.19,665.08 833.13,665.32 C833.88,665.51 834.16,665.48 833.75,665.25 C833.34,665.02 833.00,664.20 833.00,663.42 C833.00,660.50 830.10,662.18 825.50,667.75 C822.89,670.91 818.12,678.90 814.90,685.50 C811.69,692.10 805.24,702.90 800.58,709.50 C795.92,716.10 789.94,724.78 787.30,728.79 C777.81,743.19 773.31,748.72 759.51,762.89 C733.51,789.60 712.10,807.10 686.78,822.35 C660.13,838.39 635.31,849.15 608.25,856.38 L 599.00 858.86 L 599.54 855.68 C599.83,853.93 600.66,852.05 601.38,851.50 C602.09,850.95 602.92,849.38 603.22,848.00 C603.51,846.62 604.46,843.88 605.33,841.89 C606.68,838.80 606.85,838.33 604.94,836.29 C606.00,837.29 606.91,838.00 607.19,838.00 C607.57,838.00 609.96,836.20 612.50,834.00 C615.04,831.80 617.77,830.00 618.56,830.00 C619.35,830.00 621.75,828.20 623.89,826.00 C626.02,823.79 629.36,821.33 631.30,820.52 C634.19,819.31 634.78,818.58 634.55,816.49 C634.39,815.08 634.50,814.17 634.79,814.46 C635.08,814.75 635.88,814.51 636.57,813.94 C637.26,813.37 639.05,812.68 640.55,812.41 C643.44,811.88 649.17,809.21 650.00,807.99 C650.28,807.59 652.86,806.07 655.73,804.62 C680.62,792.07 706.31,771.71 704.50,765.99 C704.14,764.88 703.44,764.23 702.93,764.54 C701.36,765.52 701.90,764.32 703.69,762.87 C704.84,761.94 705.14,761.90 704.63,762.75 C703.32,764.93 705.56,764.10 708.00,761.50 C709.29,760.12 710.00,759.00 709.57,759.00 C709.13,759.00 713.50,754.08 719.27,748.06 C731.85,734.93 746.59,715.54 755.41,700.50 C758.96,694.45 762.69,688.53 763.68,687.34 C764.72,686.11 772.36,682.46 781.49,678.84 C790.29,675.35 806.69,667.90 817.94,662.28 C829.19,656.66 838.54,652.20 838.71,652.37 C839.29,652.96 836.06,661.70 831.90,671.39 ZM 663.62 664.28 C663.22,663.89 661.35,663.55 659.46,663.53 C657.56,663.51 656.05,663.10 656.09,662.61 C656.14,662.12 655.57,661.34 654.84,660.88 C654.41,660.61 654.04,660.43 654.06,660.29 C654.10,659.93 656.78,659.88 668.10,659.55 C673.92,659.37 679.75,658.90 681.03,658.49 C683.28,657.78 683.30,657.69 681.50,656.37 C680.46,655.62 678.47,654.96 677.06,654.92 C675.65,654.88 674.95,654.71 675.50,654.54 C680.53,653.04 686.23,651.75 696.00,649.92 C716.44,646.10 734.92,637.11 746.46,625.37 C753.27,618.46 759.61,608.80 758.51,607.02 C758.24,606.58 758.80,605.61 759.76,604.86 C761.37,603.60 761.39,603.65 760.00,605.50 C758.61,607.35 758.63,607.40 760.24,606.14 C761.20,605.39 761.77,604.44 761.52,604.04 C761.27,603.63 762.21,601.77 763.60,599.90 C768.32,593.57 773.27,583.83 776.14,575.25 C781.03,560.59 782.36,551.31 782.26,532.50 C782.15,513.22 781.16,505.30 778.94,505.86 C778.15,506.06 764.00,510.39 747.50,515.47 C731.00,520.56 717.28,524.40 717.00,524.01 C716.72,523.62 715.87,523.10 715.09,522.85 C713.00,522.18 722.13,516.46 727.43,515.12 C729.88,514.51 732.16,513.55 732.50,513.00 C732.84,512.45 734.10,511.99 735.31,511.99 C736.51,511.98 741.10,510.35 745.50,508.37 C754.94,504.12 765.49,500.03 769.00,499.27 C770.38,498.97 772.31,497.89 773.29,496.86 C774.27,495.84 775.50,495.00 776.01,495.00 C777.18,495.00 779.88,489.89 780.35,486.80 C780.54,485.51 781.53,484.34 782.60,484.14 C783.64,483.95 784.95,483.42 785.50,482.98 C786.05,482.54 791.00,481.66 796.50,481.02 C804.92,480.03 806.86,479.47 808.79,477.42 C810.84,475.25 810.89,474.98 809.29,474.85 C807.13,474.66 820.23,473.47 835.91,472.43 L 847.33 471.68 L 846.68 484.49 C846.63,485.43 846.58,486.33 846.52,487.19 C846.48,486.44 846.37,486.00 846.18,486.00 C844.81,486.00 843.00,488.34 843.00,490.12 C843.00,491.06 842.66,491.98 842.25,492.17 C840.95,492.74 836.01,502.68 836.69,503.36 C837.11,503.78 837.46,503.99 838.01,503.91 C837.88,503.97 837.74,504.03 837.60,504.09 C833.28,505.96 832.03,506.99 832.02,508.70 C832.01,509.58 831.96,510.82 831.86,512.30 C831.89,510.37 831.61,509.13 831.00,509.50 C830.45,509.84 830.05,512.68 830.12,515.81 C830.22,520.51 830.37,520.98 831.00,518.50 C831.33,517.22 831.56,515.88 831.70,514.65 C831.34,519.49 830.72,525.95 830.07,531.72 C830.33,528.56 830.38,526.23 830.05,526.03 C829.57,525.73 829.01,524.14 828.80,522.50 C828.55,520.43 828.18,521.52 827.63,526.00 C826.84,532.40 825.13,538.60 822.54,544.50 C821.81,546.15 820.44,550.42 819.50,554.00 C817.93,559.91 809.46,578.54 806.97,581.54 C806.41,582.22 804.90,584.74 803.63,587.14 C796.85,599.93 789.68,610.29 782.00,618.37 C771.74,629.18 756.78,641.77 753.15,642.67 C751.69,643.02 749.15,644.32 747.50,645.55 C742.80,649.04 735.09,652.60 728.00,654.56 C724.42,655.55 721.19,656.82 720.80,657.40 C720.42,657.97 718.05,658.46 715.54,658.47 C711.65,658.50 711.23,658.68 712.68,659.75 C713.62,660.44 713.85,661.00 713.19,661.00 C712.54,661.00 712.00,661.44 712.00,661.97 C712.00,663.11 714.68,662.70 728.56,659.47 C736.24,657.69 744.16,655.07 751.71,651.86 C731.62,660.66 707.96,664.99 680.42,665.00 C671.57,665.00 664.01,664.68 663.62,664.28 ZM 766.00 462.11 C766.00,461.50 766.56,460.99 767.25,460.98 C768.13,460.97 768.08,460.70 767.08,460.07 C766.08,459.44 767.09,458.96 770.54,458.44 C773.39,458.01 777.06,456.52 779.36,454.86 C781.53,453.28 783.85,452.00 784.52,452.00 C787.73,452.00 797.36,438.44 799.44,431.00 C799.82,429.62 800.86,427.08 801.74,425.35 C804.05,420.82 801.89,415.51 796.20,411.69 C791.81,408.74 791.50,406.48 795.59,407.26 C796.88,407.51 797.69,407.31 797.39,406.82 C796.70,405.71 800.79,406.65 807.76,409.22 C814.21,411.59 822.21,416.92 828.94,423.32 L 834.00 428.14 L 834.00 422.78 C834.00,415.99 831.75,407.11 828.19,399.82 C826.66,396.69 825.65,394.18 825.95,394.22 C827.75,394.51 834.23,390.59 835.06,388.72 C835.60,387.50 837.37,384.48 839.00,382.00 C840.63,379.52 843.11,375.03 844.53,372.01 C845.94,368.99 847.92,365.62 848.93,364.51 C849.93,363.40 851.29,360.83 851.94,358.80 C852.59,356.76 853.97,354.83 855.01,354.50 C856.15,354.13 857.73,351.66 859.02,348.20 C860.19,345.06 862.46,340.52 864.06,338.11 C865.66,335.69 867.91,331.19 869.06,328.11 C870.21,325.02 871.76,321.83 872.49,321.00 C873.23,320.17 874.62,317.48 875.57,315.00 C878.14,308.36 878.94,307.59 880.99,309.73 C882.20,310.98 882.48,312.23 881.95,314.00 C880.26,319.70 863.80,376.69 859.57,391.50 C857.06,400.30 852.77,415.15 850.05,424.50 C847.32,433.85 844.27,444.38 843.27,447.91 C842.26,451.43 840.78,454.65 839.97,455.06 C838.39,455.87 784.14,461.26 775.00,461.53 C771.97,461.61 768.71,462.03 767.75,462.45 C766.68,462.92 766.00,462.79 766.00,462.11 ZM 591.36 713.50 C594.85,713.50 598.33,713.05 600.84,712.06 C603.45,711.04 610.29,709.21 616.04,708.00 C627.40,705.62 627.29,705.66 627.62,703.39 C628.05,700.43 628.99,698.88 629.98,699.49 C630.53,699.83 632.15,698.94 633.58,697.51 C635.77,695.32 635.97,694.67 634.88,693.35 C633.79,692.04 633.87,691.57 635.36,690.48 C636.53,689.62 637.04,688.19 636.82,686.34 C636.54,683.88 635.37,682.94 628.00,679.28 C623.33,676.96 619.35,674.37 619.18,673.53 C619.00,672.69 619.30,672.00 619.84,672.00 C620.39,672.00 621.66,671.73 622.67,671.41 C624.23,670.90 624.28,670.99 623.00,671.98 C621.78,672.94 622.03,673.07 624.35,672.70 C625.92,672.45 631.77,673.26 637.35,674.50 C642.93,675.75 652.22,677.38 658.00,678.14 C672.10,679.97 703.98,679.73 714.50,677.72 C718.90,676.88 722.72,676.40 722.99,676.66 C724.82,678.46 696.36,692.71 677.50,699.45 C653.84,707.90 622.49,715.17 595.50,718.47 C588.35,719.34 579.12,720.49 575.00,721.02 C572.38,721.36 569.54,721.67 566.50,721.94 C571.24,721.36 573.59,720.58 574.35,719.54 C575.31,718.23 577.61,717.75 584.54,717.42 C589.47,717.19 595.08,716.57 597.00,716.05 C600.02,715.24 599.67,715.16 594.50,715.49 C591.20,715.70 587.42,716.20 586.09,716.59 C584.39,717.10 583.90,716.98 584.40,716.16 C584.80,715.52 586.10,714.99 587.31,714.98 C588.51,714.98 590.17,714.53 591.00,714.00 C591.31,713.80 591.43,713.64 591.36,713.50 ZM 516.00 723.41 C533.17,723.37 545.68,723.19 554.62,722.81 C531.37,724.14 501.31,724.08 474.72,722.76 C486.66,723.24 500.23,723.44 516.00,723.41 ZM 737.85 796.25 C757.82,778.87 777.01,758.47 793.12,737.45 C777.09,758.65 758.31,778.63 737.85,796.25 ZM 827.21 550.38 C826.89,552.13 826.63,553.57 826.50,554.30 C825.55,559.93 823.69,566.69 821.32,573.55 C823.93,565.43 826.83,554.16 826.33,553.66 C826.06,553.39 826.31,552.29 826.89,551.21 C826.99,551.02 827.10,550.74 827.21,550.38 ZM 663.79 845.16 C676.74,838.84 689.43,831.66 701.55,823.78 C697.37,826.54 693.15,829.19 688.91,831.73 C681.19,836.34 672.66,840.89 663.79,845.16 ZM 813.87 591.75 C812.33,594.94 810.75,597.91 809.18,600.50 C805.96,605.83 802.50,610.82 798.81,615.47 C804.57,608.18 809.65,600.20 813.87,591.75 ZM 583.10 712.64 C581.06,712.26 579.52,711.61 578.68,710.77 C579.53,711.54 581.12,712.17 583.10,712.64 ZM 603.12 834.47 C601.48,833.06 599.30,831.78 597.88,831.47 C597.89,831.48 597.90,831.48 597.92,831.48 C599.39,831.80 601.58,833.08 603.12,834.47 ZM 844.82 499.07 C844.75,499.23 844.67,499.38 844.59,499.50 C844.40,499.79 844.08,500.13 843.64,500.50 C844.11,500.03 844.51,499.54 844.82,499.07 ZM 426.23 718.17 C424.32,717.95 422.74,717.81 422.00,717.81 C420.62,717.82 419.02,717.42 418.43,716.94 C419.02,717.42 420.62,717.82 422.00,717.81 C422.76,717.80 424.35,717.94 426.23,718.17 Z" fill="rgba(25,93,209,1)"/>
<path d="M 664.67 427.55 C673.86,421.94 674.00,421.34 674.00,419.52 C674.00,418.27 675.16,414.71 676.58,411.61 C678.91,406.52 679.16,404.79 679.14,393.74 C679.13,387.01 678.60,378.12 677.97,374.00 C677.34,369.88 676.43,363.35 675.96,359.50 C675.49,355.65 674.62,350.48 674.04,348.00 C673.46,345.52 672.60,341.48 672.13,339.00 C671.66,336.52 669.64,328.95 667.64,322.16 C665.64,315.37 664.00,309.12 664.00,308.26 C664.00,306.08 657.28,281.89 654.40,273.69 C653.08,269.95 652.00,265.22 651.99,263.19 C651.99,261.02 650.97,257.85 649.53,255.50 C648.17,253.30 647.05,250.32 647.03,248.88 C646.99,245.50 642.70,232.35 639.27,225.12 C637.81,222.03 636.68,218.60 636.77,217.50 C637.03,214.08 632.98,201.98 630.86,199.86 C629.44,198.44 628.75,196.24 628.54,192.51 C628.38,189.57 627.63,186.45 626.87,185.55 C626.12,184.66 624.91,183.27 624.18,182.47 C623.45,181.66 623.23,180.99 623.68,180.97 C624.13,180.95 623.44,180.05 622.14,178.97 L 619.78 177.00 L 623.14 176.93 C624.99,176.89 627.40,176.45 628.50,175.96 C628.99,175.74 626.93,175.56 622.74,175.44 C635.96,175.52 643.15,175.72 640.00,175.97 C632.05,176.58 632.42,176.64 645.71,176.81 C658.71,176.98 660.02,177.17 660.98,178.96 C661.56,180.04 662.59,180.79 663.27,180.63 C663.94,180.46 664.16,180.52 663.75,180.75 C663.34,180.98 663.00,181.61 663.00,182.14 C663.00,182.68 663.41,182.87 663.91,182.56 C664.41,182.25 664.56,182.97 664.25,184.15 C663.83,185.76 664.02,186.11 665.00,185.50 C665.91,184.94 666.07,185.08 665.53,185.95 C665.10,186.65 665.54,189.83 666.51,193.03 C667.86,197.51 668.64,198.72 669.88,198.32 C671.24,197.89 671.26,197.98 670.05,198.84 C668.82,199.71 669.25,202.03 672.94,214.41 C675.32,222.41 677.66,228.71 678.12,228.42 C678.59,228.13 678.72,228.56 678.41,229.36 C677.57,231.57 681.11,243.43 682.13,241.82 C682.59,241.09 682.98,240.96 682.98,241.53 C682.99,242.09 682.28,243.58 681.40,244.84 C679.31,247.82 680.30,253.40 683.28,255.49 C684.60,256.41 685.63,256.62 685.83,256.01 C686.02,255.45 686.63,255.27 687.19,255.62 C687.84,256.02 687.75,256.54 686.93,257.05 C685.91,257.67 686.35,260.22 688.97,268.89 C690.80,274.96 692.67,279.70 693.14,279.42 C693.60,279.13 693.73,279.54 693.43,280.33 C693.13,281.11 694.02,285.69 695.42,290.51 C696.81,295.32 697.74,299.61 697.47,300.05 C697.21,300.48 697.38,300.98 697.87,301.16 C699.13,301.64 706.31,326.84 706.21,330.43 C706.14,332.63 706.37,333.03 707.05,331.96 C707.61,331.06 707.98,330.96 707.98,331.69 C707.99,332.35 707.55,333.16 707.00,333.50 C706.37,333.89 706.34,334.76 706.90,335.81 C707.87,337.63 708.00,338.18 708.00,340.50 C708.00,341.33 708.67,342.00 709.50,342.00 C710.33,342.00 710.95,342.34 710.89,342.75 C710.83,343.16 711.12,344.55 711.53,345.83 C712.03,347.38 712.53,347.77 713.01,346.98 C713.54,346.12 713.94,346.10 714.43,346.89 C714.81,347.50 714.66,348.00 714.09,348.00 C712.15,348.00 711.11,351.56 711.96,355.32 C712.42,357.34 712.45,360.51 712.03,362.37 C711.21,366.01 712.30,369.00 714.44,369.00 C716.16,369.00 717.40,372.13 716.03,372.98 C715.40,373.37 715.12,376.77 715.33,381.56 C715.61,388.02 715.32,390.11 713.76,392.75 C712.70,394.54 712.15,396.00 712.53,396.00 C712.91,396.00 712.16,396.90 710.86,398.00 C708.79,399.75 708.75,399.93 710.50,399.38 L 712.50 398.75 L 710.50 400.23 C708.45,401.74 704.17,404.30 674.00,422.04 C671.07,423.76 667.87,425.65 664.67,427.55 ZM 578.13 717.58 C578.00,717.72 578.29,717.80 578.89,717.84 C576.18,718.18 574.98,718.68 574.35,719.54 C572.27,722.38 558.24,723.31 516.00,723.41 C514.20,723.41 512.42,723.41 510.67,723.41 C510.89,723.34 511.00,723.25 511.00,723.16 C511.00,722.52 509.88,722.00 508.50,722.00 C507.12,722.00 506.00,721.60 506.00,721.11 C506.00,720.06 508.45,719.00 510.87,719.00 C511.81,719.00 514.10,717.73 515.95,716.18 C519.30,713.38 519.34,713.27 519.64,703.93 C519.80,698.74 519.24,689.67 518.39,683.78 C517.55,677.88 517.12,672.61 517.46,672.07 C517.79,671.53 517.40,669.49 516.58,667.54 C515.77,665.59 515.27,664.00 515.46,664.00 C515.66,664.00 514.93,661.64 513.83,658.75 C512.73,655.86 511.23,651.47 510.48,649.00 C505.53,632.51 498.56,613.64 496.10,610.05 C491.26,602.98 489.74,592.96 492.50,586.35 C493.33,584.37 494.00,582.11 494.00,581.31 C494.00,578.32 498.25,570.10 499.95,569.81 C501.44,569.54 501.58,569.18 500.23,564.05 C504.44,579.33 510.32,592.93 517.61,604.25 C520.00,607.96 521.57,611.00 521.10,611.00 C520.63,611.00 519.49,609.99 518.58,608.75 C517.66,607.51 517.22,607.17 517.61,608.00 C517.99,608.83 518.97,610.28 519.78,611.23 C520.60,612.17 521.44,615.05 521.65,617.62 C522.10,623.01 523.95,625.81 535.15,638.10 C545.55,649.53 548.13,652.90 555.34,664.50 C562.19,675.52 566.19,683.41 571.01,695.47 C572.77,699.86 575.06,704.53 576.10,705.86 C577.15,707.18 578.00,708.72 578.00,709.27 C578.00,711.40 581.72,712.94 587.00,712.98 C590.93,713.02 592.07,713.31 591.00,714.00 C590.17,714.53 588.51,714.98 587.31,714.98 C586.10,714.99 584.80,715.52 584.40,716.16 C584.35,716.25 584.30,716.33 584.27,716.40 C580.05,716.82 578.54,717.14 578.13,717.58 ZM 478.36 517.03 L 481.93 517.59 C483.89,517.89 493.88,518.45 504.12,518.82 C522.60,519.49 525.00,519.19 525.00,516.18 C525.00,515.68 527.07,513.08 529.60,510.39 C532.13,507.70 534.30,504.83 534.43,504.00 C534.80,501.68 539.65,499.80 547.94,498.75 C552.10,498.23 556.28,497.40 557.24,496.90 C558.19,496.41 559.65,496.00 560.49,496.00 C561.32,496.00 562.00,495.64 562.00,495.19 C562.00,494.75 563.24,493.93 564.75,493.37 C566.72,492.64 557.83,492.32 533.50,492.27 C503.69,492.20 488.73,491.68 457.60,489.34 C487.53,491.58 503.41,492.15 528.79,492.13 C561.28,492.11 590.35,492.97 587.79,493.89 C585.95,494.54 586.59,496.41 588.89,497.15 C589.66,497.39 587.56,498.42 584.22,499.43 C575.98,501.93 570.04,507.99 565.43,518.60 C563.54,522.93 562.00,526.98 562.00,527.60 C562.00,528.21 560.65,531.25 559.00,534.34 C557.35,537.43 556.00,540.65 556.00,541.48 C556.00,542.32 555.49,543.00 554.88,543.00 C554.09,543.00 554.11,543.43 554.96,544.45 C555.62,545.25 555.88,546.79 555.54,547.87 C554.81,550.19 560.23,556.98 562.85,557.03 C565.31,557.08 572.14,560.53 571.35,561.32 C570.97,561.69 571.49,562.00 572.50,562.00 C575.05,562.00 573.75,563.06 570.82,563.37 C569.50,563.51 567.93,563.92 567.35,564.29 C566.76,564.65 562.32,565.40 557.49,565.95 C550.52,566.74 544.92,566.45 540.41,564.76 C540.81,564.55 541.04,563.95 541.29,563.00 C541.98,560.38 539.22,557.18 535.77,556.60 C534.26,556.35 532.61,555.88 532.10,555.56 C531.56,555.23 531.45,556.02 531.83,557.45 C532.08,558.35 532.96,559.63 534.08,560.80 C528.04,555.02 524.94,544.33 523.24,527.00 L 522.50 519.50 L 504.00 518.83 C493.83,518.46 483.89,517.91 481.93,517.60 L 478.36 517.03 ZM 599.02 858.74 C585.19,862.20 571.73,864.75 561.45,865.63 C556.53,866.05 553.40,866.56 554.50,866.76 C556.40,867.10 557.57,867.36 558.15,867.69 C558.07,867.66 557.98,867.63 557.89,867.60 C557.12,867.36 544.80,866.90 530.50,866.57 C529.52,866.55 528.53,866.52 527.55,866.50 C528.11,866.40 528.28,866.25 528.00,866.06 C526.99,865.37 526.91,865.03 527.75,865.02 C528.44,865.01 529.00,864.28 529.00,863.39 C529.00,862.51 530.12,860.90 531.50,859.82 C532.88,858.74 534.00,857.27 534.00,856.56 C534.00,855.85 534.81,854.20 535.80,852.88 C536.79,851.57 537.54,849.83 537.47,849.00 C537.39,848.17 537.97,846.45 538.75,845.16 C539.53,843.87 539.91,841.76 539.58,840.48 C539.15,838.76 539.65,837.64 541.47,836.21 C542.82,835.14 543.71,834.04 543.44,833.77 C543.17,833.50 546.00,832.98 549.72,832.61 C566.14,831.00 565.90,831.07 566.57,827.49 C566.92,825.60 568.09,823.74 569.34,823.08 C571.13,822.14 571.16,822.05 569.50,822.61 C569.02,822.77 566.52,822.96 562.74,823.14 C563.56,823.06 564.33,822.97 565.03,822.88 C579.35,820.99 587.21,821.16 589.25,823.39 C590.21,824.44 591.00,825.64 591.00,826.04 C591.00,826.45 592.11,827.06 593.46,827.40 C595.03,827.80 595.73,828.53 595.39,829.42 C595.04,830.35 595.85,831.03 597.88,831.47 C599.54,831.84 602.25,833.52 603.90,835.21 C606.87,838.25 606.89,838.33 605.33,841.89 C604.46,843.88 603.51,846.62 603.22,848.00 C602.92,849.38 602.09,850.95 601.38,851.50 C600.66,852.05 599.83,853.93 599.54,855.68 L 599.02 858.74 ZM 472.39 722.67 C455.97,721.95 442.68,720.70 431.00,718.83 C429.41,718.58 427.72,718.34 426.22,718.16 C427.85,718.35 429.72,718.60 431.50,718.88 C440.81,720.31 457.03,721.72 472.39,722.67 ZM 523.02 614.52 C522.23,613.57 522.16,613.00 522.82,613.00 C524.03,613.00 525.44,614.90 524.74,615.59 C524.49,615.84 523.72,615.36 523.02,614.52 ZM 346.00 752.71 C376.87,779.37 412.40,799.30 449.60,811.19 C412.32,799.35 376.94,779.43 346.00,752.71 ZM 689.00 265.94 C689.00,265.36 689.45,265.16 690.00,265.50 C690.55,265.84 691.00,266.32 691.00,266.56 C691.00,266.80 690.55,267.00 690.00,267.00 C689.45,267.00 689.00,266.52 689.00,265.94 ZM 699.00 299.94 C699.00,299.36 699.45,299.16 700.00,299.50 C700.55,299.84 701.00,300.32 701.00,300.56 C701.00,300.80 700.55,301.00 700.00,301.00 C699.45,301.00 699.00,300.52 699.00,299.94 ZM 700.00 302.94 C700.00,302.36 700.45,302.16 701.00,302.50 C701.55,302.84 702.00,303.32 702.00,303.56 C702.00,303.80 701.55,304.00 701.00,304.00 C700.45,304.00 700.00,303.52 700.00,302.94 ZM 703.00 312.94 C703.00,312.36 703.45,312.16 704.00,312.50 C704.55,312.84 705.00,313.32 705.00,313.56 C705.00,313.80 704.55,314.00 704.00,314.00 C703.45,314.00 703.00,313.52 703.00,312.94 ZM 666.00 188.94 C666.00,188.36 666.45,188.16 667.00,188.50 C667.55,188.84 668.00,189.32 668.00,189.56 C668.00,189.80 667.55,190.00 667.00,190.00 C666.45,190.00 666.00,189.52 666.00,188.94 ZM 668.00 194.94 C668.00,194.36 668.45,194.16 669.00,194.50 C669.55,194.84 670.00,195.32 670.00,195.56 C670.00,195.80 669.55,196.00 669.00,196.00 C668.45,196.00 668.00,195.52 668.00,194.94 ZM 671.00 204.94 C671.00,204.36 671.45,204.16 672.00,204.50 C672.55,204.84 673.00,205.32 673.00,205.56 C673.00,205.80 672.55,206.00 672.00,206.00 C671.45,206.00 671.00,205.52 671.00,204.94 ZM 672.00 208.94 C672.00,208.36 672.45,208.16 673.00,208.50 C673.55,208.84 674.00,209.32 674.00,209.56 C674.00,209.80 673.55,210.00 673.00,210.00 C672.45,210.00 672.00,209.52 672.00,208.94 ZM 673.00 211.94 C673.00,211.36 673.45,211.16 674.00,211.50 C674.55,211.84 675.00,212.32 675.00,212.56 C675.00,212.80 674.55,213.00 674.00,213.00 C673.45,213.00 673.00,212.52 673.00,211.94 ZM 674.00 214.94 C674.00,214.36 674.45,214.16 675.00,214.50 C675.55,214.84 676.00,215.32 676.00,215.56 C676.00,215.80 675.55,216.00 675.00,216.00 C674.45,216.00 674.00,215.52 674.00,214.94 ZM 677.00 224.94 C677.00,224.36 677.45,224.16 678.00,224.50 C678.55,224.84 679.00,225.32 679.00,225.56 C679.00,225.80 678.55,226.00 678.00,226.00 C677.45,226.00 677.00,225.52 677.00,224.94 ZM 681.00 238.94 C681.00,238.36 681.45,238.16 682.00,238.50 C682.55,238.84 683.00,239.32 683.00,239.56 C683.00,239.80 682.55,240.00 682.00,240.00 C681.45,240.00 681.00,239.52 681.00,238.94 ZM 500.13 865.13 C496.18,864.83 492.72,864.50 490.00,864.15 C482.02,863.15 474.76,862.52 473.86,862.75 C473.55,862.83 473.27,862.99 473.05,863.22 C473.27,862.99 473.55,862.83 473.86,862.75 C474.76,862.51 482.02,863.10 490.00,864.04 C493.37,864.44 496.80,864.81 500.13,865.13 ZM 715.15 803.04 C702.25,812.97 689.09,821.49 674.65,829.35 C678.66,827.14 682.70,824.80 686.78,822.35 C696.66,816.39 705.95,810.10 715.15,803.04 ZM 634.22 445.00 C634.90,444.93 639.91,442.23 646.15,438.60 C646.11,438.62 646.08,438.65 646.04,438.67 C640.29,442.15 634.99,445.00 634.27,445.00 C634.25,445.00 634.24,445.00 634.22,445.00 ZM 593.02 716.72 C594.63,716.48 596.04,716.24 597.00,715.99 C599.71,715.31 599.03,715.22 594.00,715.59 C592.65,715.70 591.42,715.79 590.29,715.88 C591.63,715.72 593.11,715.58 594.50,715.49 C599.67,715.16 600.02,715.24 597.00,716.05 C596.20,716.27 594.77,716.50 593.02,716.72 ZM 489.98 820.79 C494.28,821.47 498.58,822.03 502.89,822.49 C508.65,823.10 516.33,823.52 524.43,823.75 C511.72,823.49 501.07,822.58 489.98,820.79 ZM 467.45 869.00 C465.08,868.52 462.83,867.95 461.30,867.40 C462.31,867.73 464.77,868.36 467.45,869.00 ZM 647.15 842.89 C644.22,844.19 641.04,845.49 637.66,846.78 C640.83,845.55 643.99,844.25 647.15,842.89 ZM 476.82 868.75 C478.32,868.99 479.10,869.18 479.29,869.38 C479.06,869.18 478.27,868.99 476.82,868.75 Z" fill="rgba(19,155,158,1)"/>
<path d="M 558.50 873.97 C555.53,873.46 555.15,873.22 557.00,873.03 C558.92,872.83 559.07,872.66 557.67,872.30 C555.95,871.85 555.94,871.72 557.56,869.93 C559.38,867.92 559.05,867.58 554.50,866.76 C553.40,866.56 556.53,866.05 561.45,865.63 C584.88,863.63 624.77,852.98 647.91,842.55 C692.13,822.63 722.35,801.06 759.51,762.89 C773.31,748.72 777.81,743.19 787.30,728.79 C789.94,724.78 795.92,716.10 800.58,709.50 C805.24,702.90 811.69,692.10 814.90,685.50 C818.12,678.90 822.89,670.91 825.50,667.75 C830.10,662.18 833.00,660.50 833.00,663.42 C833.00,664.20 833.34,665.02 833.75,665.25 C834.16,665.48 833.88,665.51 833.13,665.32 C832.19,665.08 831.93,665.61 832.29,666.99 C832.58,668.10 832.41,668.75 831.91,668.44 C831.41,668.13 831.00,668.32 831.00,668.86 C831.00,669.39 831.46,669.99 832.03,670.18 C833.39,670.63 819.16,698.79 810.98,711.84 C785.63,752.28 745.58,794.00 707.00,820.15 C677.40,840.23 643.90,856.13 611.50,865.49 C600.99,868.52 581.09,872.60 572.50,873.49 C569.20,873.83 565.60,874.23 564.50,874.39 C563.40,874.54 560.70,874.35 558.50,873.97 ZM 712.00 661.97 C712.00,661.44 712.54,661.00 713.19,661.00 C713.85,661.00 713.62,660.44 712.68,659.75 C711.23,658.68 711.65,658.50 715.54,658.47 C718.05,658.46 720.42,657.97 720.80,657.40 C721.19,656.82 724.42,655.55 728.00,654.56 C735.09,652.60 742.80,649.04 747.50,645.55 C749.15,644.32 751.69,643.02 753.15,642.67 C756.78,641.77 771.74,629.18 782.00,618.37 C789.68,610.29 796.85,599.93 803.63,587.14 C804.90,584.74 806.41,582.22 806.97,581.54 C809.46,578.54 817.93,559.91 819.50,554.00 C820.44,550.42 821.81,546.15 822.54,544.50 C825.13,538.60 826.84,532.40 827.63,526.00 C828.18,521.52 828.55,520.43 828.80,522.50 C829.01,524.14 829.57,525.73 830.05,526.03 C831.10,526.68 828.37,548.45 826.89,551.21 C826.31,552.29 826.06,553.39 826.33,553.66 C826.90,554.24 822.97,569.11 820.16,577.00 C809.15,607.88 786.44,634.65 759.88,648.06 C750.04,653.03 739.07,657.03 728.56,659.47 C714.68,662.70 712.00,663.11 712.00,661.97 ZM 836.69 503.36 C836.01,502.68 840.95,492.74 842.25,492.17 C842.66,491.98 843.00,491.06 843.00,490.12 C843.00,488.34 844.81,486.00 846.18,486.00 C846.91,486.00 846.48,492.50 845.41,497.78 C845.15,499.04 843.50,500.95 841.72,502.03 C838.20,504.17 837.65,504.32 836.69,503.36 ZM 535.94 562.46 C534.05,561.06 532.20,558.81 531.83,557.45 C531.45,556.02 531.56,555.23 532.10,555.56 C532.61,555.88 534.26,556.35 535.77,556.60 C539.22,557.18 541.98,560.38 541.29,563.00 C540.62,565.57 540.10,565.52 535.94,562.46 ZM 578.13 717.58 C578.77,716.90 582.06,716.49 594.00,715.59 C599.03,715.22 599.71,715.31 597.00,715.99 C592.33,717.17 577.33,718.44 578.13,717.58 ZM 830.12 515.81 C830.05,512.68 830.45,509.84 831.00,509.50 C832.15,508.79 832.15,513.96 831.00,518.50 C830.37,520.98 830.22,520.51 830.12,515.81 Z" fill="rgba(38,77,153,1)"/>
<path d="M 632.08 442.71 C631.60,441.46 630.23,437.07 629.03,432.96 C627.93,429.17 626.30,423.90 625.26,420.73 C625.53,421.14 625.70,420.83 625.84,419.91 C626.03,418.67 626.86,416.62 627.69,415.36 C628.51,414.10 629.31,411.14 629.46,408.78 C629.61,406.43 630.23,401.58 630.84,398.00 C632.36,389.12 630.12,364.81 626.65,352.50 C625.26,347.55 623.18,339.30 622.04,334.17 C620.89,329.04 619.07,323.10 617.99,320.97 C615.91,316.91 613.23,309.58 611.96,304.50 C611.27,301.73 604.57,282.70 598.70,266.81 C597.33,263.13 595.24,258.73 594.03,257.04 C592.82,255.35 590.82,251.38 589.57,248.23 C588.32,245.08 584.69,238.23 581.49,233.00 C578.30,227.77 574.51,221.26 573.09,218.51 C571.67,215.77 569.71,212.93 568.74,212.20 C567.77,211.47 566.03,208.99 564.87,206.68 C563.72,204.38 561.59,200.95 560.14,199.05 C558.69,197.15 556.26,193.10 554.75,190.05 L 552.00 184.50 L 552.59 188.50 C552.60,188.52 552.60,188.55 552.60,188.57 C551.26,183.21 550.08,176.59 550.60,176.07 C550.91,175.76 569.02,175.40 590.83,175.28 C615.05,175.14 629.72,175.41 628.50,175.96 C627.40,176.45 624.99,176.89 623.14,176.93 L 619.78 177.00 L 622.14 178.97 C623.44,180.05 624.13,180.95 623.68,180.97 C623.23,180.99 623.45,181.66 624.18,182.47 C624.91,183.27 626.12,184.66 626.87,185.55 C627.63,186.45 628.38,189.57 628.54,192.51 C628.75,196.24 629.44,198.44 630.86,199.86 C632.98,201.98 637.03,214.08 636.77,217.50 C636.68,218.60 637.81,222.03 639.27,225.12 C642.70,232.35 646.99,245.50 647.03,248.88 C647.05,250.32 648.17,253.30 649.53,255.50 C650.97,257.85 651.99,261.02 651.99,263.19 C652.00,265.22 653.08,269.95 654.40,273.69 C657.28,281.89 664.00,306.08 664.00,308.26 C664.00,309.12 665.64,315.37 667.64,322.16 C669.64,328.95 671.66,336.52 672.13,339.00 C672.60,341.48 673.46,345.52 674.04,348.00 C674.62,350.48 675.49,355.65 675.96,359.50 C676.43,363.35 677.34,369.88 677.97,374.00 C678.60,378.12 679.13,387.01 679.14,393.74 C679.16,404.79 678.91,406.52 676.58,411.61 C675.16,414.71 674.00,418.27 674.00,419.52 C674.00,422.03 673.73,422.22 649.97,436.35 C641.98,441.11 634.88,445.00 634.20,445.00 C633.51,445.00 632.56,443.97 632.08,442.71 ZM 491.91 723.64 C492.45,723.61 492.77,723.56 492.85,723.48 C493.18,723.16 493.01,722.58 492.47,722.20 C490.26,720.61 488.97,716.59 488.02,708.29 C485.73,688.23 483.02,677.70 476.21,662.40 C473.99,657.39 471.60,651.31 470.90,648.90 C470.21,646.48 468.91,643.38 468.03,642.00 C467.14,640.62 465.57,637.86 464.54,635.86 L 462.66 632.21 L 456.91 637.31 C466.87,627.61 474.81,615.76 482.52,599.80 C485.52,593.59 487.99,587.54 487.99,586.36 C488.00,585.19 488.66,582.95 489.47,581.39 C490.28,579.83 492.19,573.25 493.72,566.78 C495.24,560.30 496.78,555.00 497.14,555.00 C497.50,555.00 498.67,558.26 499.74,562.25 C501.59,569.10 501.60,569.52 499.95,569.81 C498.25,570.10 494.00,578.32 494.00,581.31 C494.00,582.11 493.33,584.37 492.50,586.35 C489.74,592.96 491.26,602.98 496.10,610.05 C498.56,613.64 505.53,632.51 510.48,649.00 C511.23,651.47 512.73,655.86 513.83,658.75 C514.93,661.64 515.66,664.00 515.46,664.00 C515.27,664.00 515.77,665.59 516.58,667.54 C517.40,669.49 517.79,671.53 517.46,672.07 C517.12,672.61 517.55,677.88 518.39,683.78 C519.24,689.67 519.80,698.74 519.64,703.93 C519.34,713.27 519.30,713.38 515.95,716.18 C514.10,717.73 511.81,719.00 510.87,719.00 C508.45,719.00 506.00,720.06 506.00,721.11 C506.00,721.60 507.12,722.00 508.50,722.00 C509.88,722.00 511.00,722.52 511.00,723.16 C511.00,723.95 503.03,724.03 491.91,723.64 ZM 474.14 474.75 C474.34,474.22 473.28,473.04 472.00,472.71 C468.61,471.82 469.76,469.99 475.25,467.56 C483.84,463.75 506.09,440.73 510.61,430.96 C511.81,428.37 514.41,424.96 516.40,423.38 C518.38,421.79 520.00,420.10 520.00,419.62 C520.00,419.13 521.69,417.00 523.75,414.87 C525.81,412.75 527.79,410.00 528.15,408.76 L 528.80 406.50 L 528.90 408.75 C528.96,409.99 529.39,411.00 529.88,411.00 C530.23,411.00 530.44,409.99 530.44,408.53 C530.62,411.18 530.80,413.81 530.97,416.41 C533.14,448.81 534.69,475.70 534.40,476.16 C533.35,477.87 501.76,476.81 474.14,474.75 ZM 429.89 616.34 C429.96,616.26 430.00,616.17 430.00,616.07 C430.00,615.48 429.13,615.00 428.07,615.00 C422.59,615.00 426.25,600.01 432.86,595.38 C434.04,594.56 435.00,593.23 435.00,592.44 C435.00,591.64 436.91,589.03 439.25,586.64 C446.59,579.13 451.88,570.69 456.90,558.48 C458.70,554.09 461.94,547.55 464.09,543.94 C466.24,540.33 468.04,536.73 468.08,535.94 C468.13,535.15 469.61,531.80 471.38,528.50 C473.63,524.32 475.12,522.59 476.30,522.79 C477.21,522.95 477.68,522.67 477.88,521.68 L 477.14 528.77 C475.70,542.59 471.98,561.29 468.44,572.50 C464.97,583.50 455.89,601.51 450.91,607.28 C444.83,614.34 440.71,616.17 429.89,616.34 ZM 478.97 517.13 C479.16,517.04 479.38,517.00 479.62,517.00 C480.94,517.00 481.02,516.72 480.01,515.52 C479.02,514.32 479.20,513.32 480.98,510.32 C482.41,507.88 482.98,505.67 482.63,503.90 C482.23,501.92 482.75,500.49 484.54,498.55 C485.90,497.09 487.00,495.05 487.00,494.02 C487.00,492.84 487.84,492.01 489.25,491.79 C490.09,491.66 488.01,491.39 484.25,491.11 C500.22,491.97 513.53,492.22 533.50,492.27 C557.83,492.32 566.72,492.64 564.75,493.37 C563.24,493.93 562.00,494.75 562.00,495.19 C562.00,495.64 561.32,496.00 560.49,496.00 C559.65,496.00 558.19,496.41 557.24,496.90 C556.28,497.40 552.10,498.23 547.94,498.75 C539.65,499.80 534.80,501.68 534.43,504.00 C534.30,504.83 532.13,507.70 529.60,510.39 C527.07,513.08 525.00,515.68 525.00,516.18 C525.00,519.19 522.60,519.49 504.12,518.82 C493.88,518.45 483.89,517.89 481.93,517.59 L 478.97 517.13 ZM 504.30 865.51 C504.56,865.36 504.59,865.10 504.44,864.71 C504.17,863.99 505.25,860.50 506.85,856.95 C508.47,853.38 510.09,847.60 510.50,844.00 C511.45,835.61 513.18,832.23 516.74,831.82 C518.81,831.58 519.59,830.88 519.85,829.00 C520.04,827.62 520.59,826.02 521.07,825.43 C521.64,824.74 517.57,823.97 507.80,822.94 C518.15,823.78 529.25,823.99 543.00,823.74 C556.47,823.49 568.40,822.99 569.50,822.61 C571.16,822.05 571.13,822.14 569.34,823.08 C568.09,823.74 566.92,825.60 566.57,827.49 C565.90,831.07 566.14,831.00 549.72,832.61 C546.00,832.98 543.17,833.50 543.44,833.77 C543.71,834.04 542.82,835.14 541.47,836.21 C539.65,837.64 539.15,838.76 539.58,840.48 C539.91,841.76 539.53,843.87 538.75,845.16 C537.97,846.45 537.39,848.17 537.47,849.00 C537.54,849.83 536.79,851.57 535.80,852.88 C534.81,854.20 534.00,855.85 534.00,856.56 C534.00,857.27 532.88,858.74 531.50,859.82 C530.12,860.90 529.00,862.51 529.00,863.39 C529.00,864.28 528.44,865.01 527.75,865.02 C526.91,865.03 526.99,865.37 528.00,866.06 C529.50,867.09 518.17,866.72 504.30,865.51 ZM 471.08 817.07 C462.94,815.29 455.33,813.32 449.50,811.41 C440.53,808.46 431.64,805.04 422.88,801.19 C438.55,807.97 454.68,813.30 471.08,817.07 ZM 530.15 404.17 C529.44,394.73 527.51,365.56 525.52,334.00 C524.70,321.08 523.63,307.12 523.13,303.00 C522.98,301.70 522.83,300.37 522.70,299.10 C522.82,300.22 522.95,301.38 523.09,302.50 C523.57,306.35 524.65,320.30 525.49,333.50 C526.23,345.06 528.21,375.11 530.15,404.17 ZM 449.18 644.10 C443.83,648.64 440.80,650.56 433.03,654.82 C438.99,651.46 444.32,647.94 449.18,644.10 ZM 435.88 719.49 C444.47,720.44 456.98,721.55 468.09,722.39 C456.28,721.60 444.38,720.57 435.88,719.49 ZM 421.06 717.76 C421.20,717.74 421.34,717.70 421.46,717.65 C422.28,717.34 424.19,717.50 425.72,718.01 C425.88,718.07 426.10,718.12 426.37,718.18 C424.40,717.95 422.76,717.81 422.00,717.81 C421.69,717.81 421.38,717.79 421.06,717.76 ZM 470.94 490.30 C462.97,489.78 452.29,489.01 443.83,488.32 C437.22,487.78 432.55,487.44 429.24,487.29 C432.63,487.43 437.46,487.77 444.32,488.31 C454.61,489.13 463.25,489.78 470.94,490.30 ZM 442.05 471.46 C444.21,471.77 451.94,472.67 459.22,473.49 C452.51,472.85 446.57,472.16 442.05,471.46 ZM 418.53 615.64 C419.15,615.77 420.82,616.01 422.85,616.27 C420.40,616.19 418.72,616.05 418.55,615.89 C418.52,615.85 418.51,615.77 418.53,615.64 ZM 622.59 412.53 C621.35,408.65 619.85,403.93 618.45,399.50 C618.09,398.34 617.72,397.19 617.37,396.09 C619.00,401.07 620.87,406.93 622.59,412.53 ZM 474.16 862.71 C476.25,862.56 486.15,863.48 495.08,864.62 C493.38,864.43 491.69,864.24 490.00,864.04 C482.60,863.16 475.82,862.60 474.16,862.71 ZM 477.99 520.64 C478.00,520.46 478.00,520.26 478.00,520.04 C478.00,519.15 478.08,518.47 478.27,517.98 L 477.99 520.64 ZM 570.22 244.31 C568.71,239.29 566.63,232.70 563.99,224.50 C562.80,220.80 561.42,216.42 560.23,212.56 C561.49,216.60 562.86,220.96 564.00,224.50 C566.65,232.74 568.72,239.32 570.22,244.31 ZM 555.01 195.91 C554.79,195.33 554.60,194.85 554.44,194.50 C554.34,194.27 554.23,194.00 554.12,193.70 C554.32,194.08 554.63,194.86 555.01,195.91 Z" fill="rgba(38,193,113,1)"/>
<path d="M 322.31 648.51 C293.77,643.34 270.15,627.01 255.74,602.50 C243.11,581.02 237.05,554.80 237.02,521.42 L 237.00 503.33 L 229.32 500.42 C220.11,496.92 220.11,496.92 219.75,479.50 L 219.50 467.50 L 222.50 467.15 C224.15,466.96 227.75,467.29 230.50,467.89 C233.25,468.48 240.23,469.42 246.00,469.97 C251.77,470.52 260.33,471.44 265.00,472.01 C277.00,473.48 301.50,475.85 321.90,477.49 C331.47,478.27 339.70,479.30 340.18,479.78 C340.67,480.27 345.27,489.63 350.41,500.58 C366.63,535.17 371.79,545.58 373.32,546.85 C374.59,547.91 377.38,544.85 391.64,526.80 C400.89,515.08 411.09,501.82 414.30,497.31 C414.71,496.75 415.11,496.19 415.51,495.64 C418.30,491.81 420.91,488.49 421.61,487.90 C421.62,487.90 421.63,487.90 421.63,487.89 C421.64,487.89 421.64,487.88 421.65,487.88 C421.89,487.68 422.26,487.52 422.83,487.41 C424.55,487.05 428.03,487.13 435.10,487.64 C436.24,487.72 437.47,487.82 438.80,487.92 C447.45,488.60 456.99,489.48 460.01,489.88 L 465.50 490.59 L 462.00 492.79 C460.08,494.00 457.68,494.99 456.68,495.00 C455.69,495.00 453.96,495.48 452.86,496.08 C451.04,497.05 450.86,498.06 451.03,506.33 C451.25,517.39 450.13,523.69 446.64,531.00 C445.20,534.03 444.02,537.16 444.01,537.96 C444.00,538.76 442.41,541.04 440.47,543.03 C437.66,545.91 436.80,547.74 436.22,552.07 C435.61,556.66 435.42,555.46 435.00,544.30 C434.76,538.00 434.26,532.89 433.74,530.86 C433.62,530.41 433.50,530.10 433.38,529.98 C432.59,529.19 430.59,531.41 425.82,538.41 C425.54,538.82 425.26,539.24 424.96,539.68 C411.32,559.93 394.05,583.43 378.64,602.74 C371.45,611.74 369.40,613.74 368.30,612.83 C366.11,611.02 349.46,584.78 312.23,524.50 C303.91,511.03 300.39,507.07 294.26,504.26 C291.29,502.90 288.66,502.01 288.40,502.26 C287.15,503.52 284.91,527.10 284.86,539.58 C284.77,560.41 287.49,572.18 295.92,587.50 C302.85,600.10 316.74,613.30 330.20,620.10 C346.79,628.48 358.30,631.09 382.00,631.88 L 400.50 632.50 L 393.00 636.72 C373.75,647.56 344.21,652.49 322.31,648.51 ZM 624.20 417.84 C619.88,403.41 613.61,384.34 612.88,383.41 C612.40,382.81 612.22,382.12 612.46,381.88 C612.70,381.64 610.41,373.58 607.36,363.97 C595.09,325.20 589.09,305.99 588.53,303.70 C587.65,300.08 581.74,281.47 581.16,280.50 C580.83,279.95 580.42,278.60 580.26,277.50 C579.81,274.43 575.85,262.61 574.95,261.63 C574.52,261.15 574.39,260.14 574.69,259.38 C574.98,258.62 574.81,258.00 574.32,258.00 C573.83,258.00 573.35,257.05 573.27,255.89 C573.09,253.60 570.10,243.45 564.00,224.50 C561.88,217.90 558.94,208.45 557.47,203.50 C556.00,198.55 554.44,194.05 553.99,193.50 C553.54,192.95 552.91,190.70 552.59,188.50 L 552.00 184.50 L 554.75 190.05 C556.26,193.10 558.69,197.15 560.14,199.05 C561.59,200.95 563.72,204.38 564.87,206.68 C566.03,208.99 567.77,211.47 568.74,212.20 C569.71,212.93 571.67,215.77 573.09,218.51 C574.51,221.26 578.30,227.77 581.49,233.00 C584.69,238.23 588.32,245.08 589.57,248.23 C590.82,251.38 592.82,255.35 594.03,257.04 C595.24,258.73 597.33,263.13 598.70,266.81 C604.57,282.70 611.27,301.73 611.96,304.50 C613.23,309.58 615.91,316.91 617.99,320.97 C619.07,323.10 620.89,329.04 622.04,334.17 C623.18,339.30 625.26,347.55 626.65,352.50 C630.12,364.81 632.36,389.12 630.84,398.00 C630.23,401.58 629.61,406.43 629.46,408.78 C629.31,411.14 628.51,414.10 627.69,415.36 C626.86,416.62 626.03,418.67 625.84,419.91 C625.58,421.66 625.21,421.19 624.20,417.84 ZM 438.00 463.32 L 442.51 458.91 C444.99,456.49 448.26,452.71 449.76,450.52 C451.27,448.32 454.08,444.94 456.00,442.99 C461.02,437.91 485.94,409.55 487.79,406.81 C488.65,405.54 490.69,402.95 492.32,401.05 C493.95,399.15 496.14,395.69 497.17,393.35 C498.21,391.00 500.09,387.83 501.36,386.29 C502.63,384.76 506.25,379.56 509.41,374.73 C514.75,366.58 520.30,360.72 522.39,361.03 C522.88,361.11 523.61,360.62 524.03,359.96 C524.46,359.26 525.08,360.94 525.48,363.87 C525.87,366.69 526.64,369.00 527.19,369.00 C527.44,369.00 527.61,368.69 527.71,368.12 C529.03,388.35 530.07,403.61 530.36,406.75 C530.58,409.09 530.36,411.00 529.88,411.00 C529.39,411.00 528.96,409.99 528.90,408.75 L 528.80 406.50 L 528.15 408.76 C527.79,410.00 525.81,412.75 523.75,414.87 C521.69,417.00 520.00,419.13 520.00,419.62 C520.00,420.10 518.38,421.79 516.40,423.38 C514.41,424.96 511.81,428.37 510.61,430.96 C506.09,440.73 483.84,463.75 475.25,467.56 C469.76,469.99 468.61,471.82 472.00,472.71 C473.66,473.14 474.95,475.00 473.60,475.00 C472.33,475.00 444.88,471.91 441.75,471.42 L 438.00 470.82 L 438.00 463.32 ZM 424.70 659.22 C426.62,658.26 428.55,657.26 430.50,656.20 C442.76,649.54 444.44,648.37 454.58,639.38 L 462.66 632.21 L 464.54 635.86 C465.57,637.86 467.14,640.62 468.03,642.00 C468.91,643.38 470.21,646.48 470.90,648.90 C471.60,651.31 473.99,657.39 476.21,662.40 C483.02,677.70 485.73,688.23 488.02,708.29 C488.97,716.59 490.26,720.61 492.47,722.20 C493.01,722.58 493.18,723.16 492.85,723.48 C492.23,724.10 474.90,723.00 457.96,721.58 C461.37,721.74 463.00,721.56 463.00,721.04 C463.00,720.47 461.46,720.00 459.58,720.00 C453.75,720.00 453.09,719.39 454.31,715.19 C455.51,711.05 455.81,694.15 454.87,683.50 C454.53,679.65 453.05,672.68 451.57,668.01 C449.51,661.51 449.03,658.43 449.51,654.90 C449.99,651.45 449.76,649.91 448.62,648.76 C447.78,647.92 447.41,646.89 447.80,646.46 C448.67,645.49 446.33,646.76 443.00,649.05 C438.34,652.26 431.83,655.84 424.70,659.22 ZM 469.00 869.35 C465.42,868.54 461.83,867.61 461.00,867.29 C460.17,866.97 458.60,866.54 457.50,866.34 C456.03,866.08 451.86,864.86 446.97,863.32 C453.58,865.32 459.66,866.59 461.43,866.34 C465.14,865.82 470.01,864.00 469.98,863.13 C469.94,861.34 468.02,860.03 463.86,858.99 L 459.26 857.83 L 461.54 855.37 C462.79,854.01 464.50,851.46 465.34,849.70 C466.18,847.94 467.91,845.40 469.18,844.07 C470.46,842.73 473.08,838.68 475.00,835.07 L 478.50 828.50 L 487.25 828.86 C495.49,829.19 496.00,829.10 496.00,827.19 C496.00,826.08 496.25,824.51 496.55,823.72 C496.99,822.59 495.09,821.91 487.80,820.60 C481.07,819.38 474.48,817.98 468.02,816.38 C480.27,819.17 494.17,821.57 505.23,822.68 C516.86,823.84 521.68,824.68 521.07,825.43 C520.59,826.02 520.04,827.62 519.85,829.00 C519.59,830.88 518.81,831.58 516.74,831.82 C513.18,832.23 511.45,835.61 510.50,844.00 C510.09,847.60 508.47,853.38 506.85,856.95 C505.25,860.50 504.17,863.99 504.44,864.71 C504.82,865.69 504.03,865.88 501.22,865.46 C490.89,863.92 475.31,862.37 473.86,862.75 C472.85,863.01 472.28,864.11 472.36,865.61 C472.48,867.65 473.16,868.16 476.46,868.69 C479.65,869.20 480.04,869.47 478.46,870.09 C477.75,870.37 477.30,870.57 476.83,870.68 C475.71,870.92 474.46,870.59 469.00,869.35 ZM 355.88 760.88 C377.51,777.98 401.79,792.33 427.14,803.02 C405.27,793.98 384.50,782.14 364.00,767.14 C361.37,765.21 358.65,763.11 355.88,760.88 ZM 308.65 713.50 C313.95,720.38 323.75,731.12 332.90,740.32 C323.64,731.24 315.05,721.81 308.65,713.50 ZM 445.91 720.51 C436.87,719.65 429.34,718.80 426.55,718.22 C429.18,718.49 432.59,718.89 436.00,719.32 C439.70,719.79 443.00,720.18 445.91,720.51 ZM 527.01 357.44 C526.58,351.67 526.01,343.16 525.48,334.50 C524.84,324.01 524.06,313.14 523.52,306.87 C524.07,313.02 524.87,323.83 525.52,334.00 C526.03,342.06 526.53,349.97 527.01,357.44 ZM 372.45 675.81 C373.52,675.61 374.63,675.40 375.80,675.17 C384.51,673.42 392.15,671.56 399.22,669.39 C398.05,669.76 396.91,670.11 395.80,670.42 C386.55,673.06 379.62,674.75 372.45,675.81 ZM 437.01 431.28 C437.55,441.06 438.00,452.28 438.00,456.20 L 438.00 459.95 C438.00,453.96 437.55,441.06 437.01,431.28 ZM 417.09 852.37 C410.39,849.46 405.18,846.91 393.50,841.01 C403.00,845.81 410.44,849.42 417.09,852.37 ZM 420.99 717.77 C420.21,717.87 419.26,717.63 418.67,717.14 C417.95,716.54 416.04,716.06 414.43,716.07 C416.04,716.06 417.84,716.45 418.43,716.94 C418.88,717.31 419.91,717.63 420.99,717.77 ZM 522.68 298.95 C522.40,296.31 522.20,293.96 522.18,293.00 C522.15,290.84 521.95,286.68 521.58,280.70 C521.94,286.64 522.15,290.79 522.19,293.00 C522.21,293.92 522.40,296.26 522.68,298.95 ZM 429.04 857.30 C428.03,856.93 427.17,856.60 426.50,856.32 C426.46,856.31 426.43,856.29 426.39,856.28 C427.28,856.63 428.16,856.97 429.04,857.30 Z" fill="rgba(85,183,64,1)"/>
<path d="M 446.93 863.31 C431.48,858.64 421.35,854.69 404.11,846.29 C408.65,848.30 410.62,848.78 407.71,846.58 C406.12,845.37 406.57,845.11 411.90,844.17 C417.77,843.14 418.11,843.21 433.18,848.66 C441.61,851.71 450.30,854.79 452.50,855.50 C457.35,857.08 459.38,857.35 461.23,855.70 L 459.26 857.83 L 463.86 858.99 C468.02,860.03 469.94,861.34 469.98,863.13 C470.01,864.00 465.14,865.82 461.43,866.34 C459.66,866.59 453.56,865.31 446.93,863.31 ZM 272.49 742.50 C262.14,729.64 252.76,716.16 244.30,702.00 C241.36,697.09 238.61,692.20 236.07,687.41 C245.70,705.34 258.37,724.68 272.49,742.50 ZM 332.29 801.64 C319.28,791.27 307.20,780.39 296.02,768.98 C307.15,780.23 319.61,791.44 332.29,801.64 ZM 468.66 844.65 C467.72,845.76 466.65,847.32 465.88,848.68 C465.96,848.49 466.00,848.34 466.00,848.26 C466.00,847.84 467.19,846.23 468.66,844.65 ZM 474.79 835.45 C472.89,838.96 470.41,842.77 469.18,844.07 C469.18,844.07 469.18,844.07 469.18,844.07 C470.69,842.28 473.05,838.66 474.79,835.45 ZM 464.93 850.51 C464.49,851.31 463.93,852.20 463.35,853.04 C463.36,853.03 463.36,853.03 463.37,853.02 C463.95,852.14 464.49,851.26 464.93,850.51 Z" fill="rgba(140,51,17,1)"/>
<path d="M 431.94 345.00 C433.00,361.23 434.40,383.50 435.06,394.50 C435.71,405.50 436.42,414.69 436.62,414.92 C436.83,415.15 437.01,412.00 437.02,407.92 C437.03,402.76 437.33,400.96 438.00,402.00 C438.79,403.22 438.97,403.10 438.98,401.32 C438.99,400.12 440.12,398.26 441.49,397.19 C442.86,396.11 445.49,392.59 447.33,389.36 C451.05,382.85 451.48,382.17 464.05,362.83 C468.93,355.31 473.38,348.88 473.94,348.54 C475.07,347.84 483.30,331.84 484.50,328.00 C484.94,326.62 486.29,324.15 487.51,322.50 C490.33,318.68 495.26,308.90 497.47,302.74 C498.55,299.71 499.59,298.23 500.34,298.65 C500.98,299.02 501.20,298.99 500.83,298.58 C500.46,298.17 501.70,295.28 503.58,292.16 C505.46,289.05 507.00,286.02 507.00,285.44 C507.00,284.85 507.80,283.50 508.78,282.44 C509.76,281.37 511.86,278.79 513.44,276.70 C515.55,273.91 516.54,273.24 517.14,274.20 C517.74,275.15 518.01,274.96 518.10,273.50 C518.19,272.19 518.48,272.54 518.93,274.50 L 519.63 277.50 L 520.35 273.50 C520.63,271.88 520.32,263.34 519.60,251.88 C521.21,273.98 522.11,288.27 522.18,293.00 C522.21,294.38 522.61,298.65 523.09,302.50 C523.57,306.35 524.64,320.75 525.48,334.50 C526.32,348.25 527.27,361.64 527.59,364.25 C527.96,367.15 527.80,369.00 527.19,369.00 C526.64,369.00 525.87,366.69 525.48,363.87 C525.08,360.94 524.46,359.26 524.03,359.96 C523.61,360.62 522.88,361.11 522.39,361.03 C520.30,360.72 514.75,366.58 509.41,374.73 C506.25,379.56 502.63,384.76 501.36,386.29 C500.09,387.83 498.21,391.00 497.17,393.35 C496.14,395.69 493.95,399.15 492.32,401.05 C490.69,402.95 488.65,405.54 487.79,406.81 C485.94,409.55 461.02,437.91 456.00,442.99 C454.08,444.94 451.27,448.32 449.76,450.52 C448.26,452.71 444.99,456.49 442.51,458.91 L 438.00 463.32 L 438.00 456.20 C438.00,452.28 437.55,441.06 437.01,431.28 C436.46,421.50 435.53,404.73 434.94,394.00 C434.35,383.27 433.00,361.23 431.94,345.00 ZM 312.23 524.50 C348.14,582.65 364.00,607.51 364.00,605.65 C364.00,605.27 362.97,603.28 361.72,601.23 C358.84,596.51 359.18,593.25 362.57,593.25 C363.92,593.25 366.71,592.12 368.77,590.73 C370.82,589.35 374.08,587.49 376.00,586.61 C377.92,585.73 382.20,581.80 385.50,577.89 C388.80,573.98 393.10,568.92 395.05,566.64 C404.61,555.51 414.09,538.04 416.03,528.00 C416.61,524.97 417.73,515.61 418.52,507.20 C419.30,498.78 420.21,491.47 420.53,490.95 C420.85,490.43 421.77,490.00 422.56,490.00 C423.35,490.00 424.00,489.58 424.00,489.06 C424.00,488.55 425.46,487.95 427.25,487.72 C429.69,487.42 429.98,487.33 427.76,487.22 C430.32,487.30 433.87,487.53 438.80,487.92 C447.45,488.60 456.99,489.48 460.01,489.88 L 465.50 490.59 L 462.00 492.79 C460.08,494.00 457.68,494.99 456.68,495.00 C455.69,495.00 453.96,495.48 452.86,496.08 C451.04,497.05 450.86,498.06 451.03,506.33 C451.25,517.39 450.13,523.69 446.64,531.00 C445.20,534.03 444.02,537.16 444.01,537.96 C444.00,538.76 442.41,541.04 440.47,543.03 C437.66,545.91 436.80,547.74 436.22,552.07 C435.61,556.66 435.42,555.46 435.00,544.30 C434.70,536.57 434.03,530.63 433.37,529.97 C432.55,529.15 430.34,531.70 424.96,539.68 C411.32,559.93 394.05,583.43 378.64,602.74 C371.45,611.74 369.40,613.74 368.30,612.83 C366.11,611.02 349.46,584.78 312.23,524.50 ZM 415.50 663.56 C411.91,665.04 408.04,666.46 403.96,667.81 C417.92,662.90 433.95,655.28 443.00,649.05 C446.33,646.76 448.67,645.49 447.80,646.46 C447.41,646.89 447.78,647.92 448.62,648.76 C449.76,649.91 449.99,651.45 449.51,654.90 C449.03,658.43 449.51,661.51 451.57,668.01 C453.05,672.68 454.53,679.65 454.87,683.50 C455.81,694.15 455.51,711.05 454.31,715.19 C453.09,719.39 453.75,720.00 459.58,720.00 C461.46,720.00 463.00,720.47 463.00,721.04 C463.00,722.21 454.56,721.67 436.00,719.32 C429.67,718.52 423.38,717.85 422.00,717.84 C420.62,717.83 419.02,717.42 418.43,716.94 C417.84,716.45 416.04,716.06 414.43,716.07 C414.39,716.07 414.34,716.07 414.30,716.07 C414.85,715.48 415.00,714.49 414.53,713.32 C413.65,711.17 413.65,691.04 414.53,686.00 C416.74,673.21 416.99,672.53 420.09,670.76 C422.64,669.30 423.08,668.50 422.81,665.76 C422.57,663.23 423.06,662.08 425.00,660.64 C427.90,658.49 427.49,658.62 415.50,663.56 ZM 452.50 855.50 C450.30,854.79 441.61,851.71 433.18,848.66 C430.63,847.74 428.51,846.97 426.70,846.34 C431.35,847.95 431.77,847.34 431.06,843.59 C430.97,843.09 431.35,841.51 431.90,840.09 C432.88,837.57 433.16,836.02 434.55,825.50 C435.72,816.67 436.52,816.09 444.69,818.15 C449.01,819.24 449.36,819.17 451.08,816.90 C452.33,815.24 453.67,814.60 455.45,814.82 C460.09,815.41 458.11,814.25 449.75,811.50 C442.51,809.11 435.35,806.44 428.28,803.49 C447.11,811.18 466.78,816.80 487.80,820.60 C495.09,821.91 496.99,822.59 496.55,823.72 C496.25,824.51 496.00,826.08 496.00,827.19 C496.00,829.10 495.49,829.19 487.25,828.86 L 478.50 828.50 L 475.00 835.07 C473.08,838.68 470.26,842.95 468.75,844.56 C467.24,846.16 466.00,847.83 466.00,848.26 C466.00,848.69 464.82,850.83 463.37,853.02 C460.49,857.36 459.17,857.67 452.50,855.50 ZM 309.26 675.94 C317.37,677.14 326.65,677.49 341.00,677.47 C346.87,677.46 351.87,677.39 356.35,677.21 C339.96,678.06 319.92,677.68 309.26,675.94 ZM 384.50 836.45 C378.03,832.97 371.40,829.22 366.16,825.95 C359.47,821.78 352.54,817.03 345.57,811.88 C358.01,820.90 370.91,829.04 384.50,836.45 ZM 295.84 768.79 C288.80,761.66 282.30,754.52 276.62,747.62 C270.81,740.55 265.20,733.18 259.92,725.71 C270.84,740.99 283.10,755.79 295.84,768.79 ZM 423.44 487.31 C421.53,487.85 420.01,489.89 414.89,496.75 C412.83,499.51 409.01,504.48 404.57,510.22 C408.98,504.49 412.61,499.68 414.30,497.31 C417.52,492.81 420.81,488.58 421.61,487.90 C421.95,487.62 422.51,487.42 423.44,487.31 ZM 332.90 740.32 C340.44,747.71 348.42,754.86 356.02,760.99 C352.61,758.30 349.27,755.54 346.00,752.71 C342.31,749.53 337.70,745.14 332.90,740.32 ZM 225.42 665.22 C220.92,654.39 218.08,644.75 217.38,637.20 C217.38,637.14 217.37,637.07 217.36,637.01 C218.19,642.36 219.81,649.66 221.52,654.75 C222.65,658.14 223.96,661.64 225.42,665.22 ZM 229.42 638.85 C242.51,648.74 257.66,657.66 272.36,664.31 C257.74,657.81 243.08,649.17 229.42,638.85 ZM 410.36 715.86 C407.68,715.62 404.28,715.20 400.35,714.62 C402.73,714.94 404.59,715.14 405.78,715.17 C407.32,715.22 409.12,715.50 410.36,715.86 ZM 413.97 843.83 C417.85,843.27 419.42,843.63 424.51,845.54 C425.17,845.79 425.77,846.01 426.32,846.20 C419.17,843.70 417.25,843.37 413.97,843.83 ZM 337.50 701.88 C350.82,705.24 369.10,709.12 383.61,711.81 C368.96,709.13 351.85,705.50 337.50,701.88 ZM 515.30 195.98 C514.92,191.45 514.60,187.96 514.32,185.26 C514.60,187.97 514.92,191.47 515.30,195.98 Z" fill="rgba(147,195,36,1)"/>
<path d="M 370.07 427.55 C369.83,427.55 369.56,427.60 369.25,427.72 C367.74,428.29 367.68,428.15 368.83,426.74 C369.92,425.40 372.83,415.54 372.96,412.75 C372.98,412.34 371.47,412.00 369.61,412.00 L 366.21 412.00 L 366.12 406.25 C366.05,402.20 365.27,399.02 363.46,395.50 C361.26,391.19 361.13,390.45 362.51,390.17 C363.99,389.86 363.99,389.63 362.51,387.37 C361.62,386.02 359.97,380.54 358.84,375.20 C357.71,369.87 356.35,364.68 355.82,363.67 C355.11,362.33 355.27,361.35 356.43,360.07 C357.31,359.11 358.03,356.78 358.04,354.91 C358.05,353.03 358.11,349.70 358.17,347.50 C358.23,345.30 358.20,342.60 358.10,341.50 C357.62,335.94 359.05,322.80 360.43,320.13 C361.30,318.46 362.00,314.80 362.00,311.98 C362.00,309.17 362.49,305.96 363.08,304.85 C363.68,303.73 364.38,301.64 364.64,300.19 C364.90,298.75 365.49,297.10 365.93,296.53 C366.72,295.53 367.48,292.34 368.66,285.00 C368.97,283.08 370.04,280.60 371.05,279.50 C372.05,278.40 373.46,275.25 374.17,272.50 C374.88,269.75 375.85,267.22 376.32,266.89 C376.79,266.55 377.07,266.10 376.94,265.89 C376.55,265.25 383.13,254.00 383.88,254.00 C384.26,254.00 384.65,252.99 384.74,251.75 C384.83,250.51 386.05,248.51 387.45,247.30 C388.85,246.09 390.00,244.48 390.00,243.74 C390.00,242.99 390.83,241.49 391.84,240.41 C392.85,239.32 393.98,237.22 394.35,235.74 C394.72,234.26 396.14,231.40 397.51,229.39 C398.88,227.37 400.00,224.77 400.00,223.60 C400.00,221.72 408.89,211.40 412.34,209.28 C413.04,208.85 414.35,206.93 415.25,205.00 C416.15,203.07 418.25,200.03 419.91,198.23 C421.57,196.43 423.28,194.41 423.71,193.73 C424.96,191.79 434.19,185.00 435.59,185.00 C436.29,185.00 437.45,184.42 438.18,183.71 C438.91,183.01 442.42,181.57 446.00,180.52 C449.61,179.45 453.52,177.54 454.80,176.20 L 456.27 174.66 C484.76,174.74 511.51,175.18 512.46,175.96 C513.81,177.09 514.35,182.51 518.56,237.00 C519.97,255.40 520.75,271.24 520.35,273.50 L 519.63 277.50 L 518.93 274.50 C518.48,272.54 518.19,272.19 518.10,273.50 C518.01,274.96 517.74,275.15 517.14,274.20 C516.54,273.24 515.55,273.91 513.44,276.70 C511.86,278.79 509.76,281.37 508.78,282.44 C507.80,283.50 507.00,284.85 507.00,285.44 C507.00,286.02 505.46,289.05 503.58,292.16 C501.70,295.28 500.46,298.17 500.83,298.58 C501.20,298.99 500.98,299.02 500.34,298.65 C499.59,298.23 498.55,299.71 497.47,302.74 C495.26,308.90 490.33,318.68 487.51,322.50 C486.29,324.15 484.94,326.62 484.50,328.00 C483.30,331.84 475.07,347.84 473.94,348.54 C473.38,348.88 468.93,355.31 464.05,362.83 C451.48,382.17 451.05,382.85 447.33,389.36 C445.49,392.59 442.86,396.11 441.49,397.19 C440.12,398.26 438.99,400.12 438.98,401.32 C438.97,403.10 438.79,403.22 438.00,402.00 C437.33,400.96 437.03,402.76 437.02,407.92 C437.01,412.00 436.83,415.15 436.62,414.92 C436.42,414.69 435.71,405.50 435.06,394.50 C434.40,383.50 433.00,361.23 431.94,345.00 C430.88,328.77 430.01,314.71 430.01,313.75 C430.00,312.79 429.64,312.00 429.19,312.00 C428.75,312.00 422.82,323.59 416.01,337.75 C396.33,378.69 375.67,418.95 370.07,427.55 ZM 323.07 542.03 C324.19,543.63 325.51,545.34 326.49,546.39 C327.89,547.90 328.82,549.48 328.56,549.90 C328.30,550.32 328.74,550.67 329.53,550.67 C330.69,550.67 330.73,550.38 329.73,549.17 C328.68,547.89 328.78,547.82 330.50,548.74 C332.45,549.78 332.49,549.58 331.90,540.65 C331.58,535.62 330.74,530.15 330.05,528.50 C329.35,526.85 328.42,520.55 327.97,514.50 C327.52,508.45 326.84,500.55 326.46,496.94 C325.89,491.55 326.06,490.09 327.40,488.74 C328.93,487.21 328.92,487.03 327.27,486.18 C325.16,485.09 317.36,483.31 310.72,482.41 C305.52,481.71 293.56,478.15 296.00,478.04 C297.33,477.98 297.33,477.86 296.00,477.00 C294.84,476.25 295.17,476.00 297.50,475.89 C299.15,475.81 294.65,475.17 287.50,474.47 C280.35,473.76 270.45,472.69 265.50,472.08 C260.55,471.47 251.77,470.52 246.00,469.97 C243.11,469.69 239.92,469.32 237.12,468.95 C239.93,469.32 243.11,469.69 246.00,469.97 C251.77,470.52 260.33,471.44 265.00,472.01 C277.00,473.48 301.50,475.85 321.90,477.49 C331.47,478.27 339.70,479.30 340.18,479.78 C340.67,480.27 345.27,489.63 350.41,500.58 C366.63,535.17 371.79,545.58 373.32,546.85 C374.59,547.91 377.31,544.93 391.22,527.30 C400.24,515.86 410.89,502.11 414.89,496.75 C422.15,487.02 422.17,487.00 426.33,487.16 C430.02,487.30 430.12,487.37 427.25,487.72 C425.46,487.95 424.00,488.55 424.00,489.06 C424.00,489.58 423.35,490.00 422.56,490.00 C421.77,490.00 420.85,490.43 420.53,490.95 C420.21,491.47 419.30,498.78 418.52,507.20 C417.73,515.61 416.61,524.97 416.03,528.00 C414.09,538.04 404.61,555.51 395.05,566.64 C393.10,568.92 388.80,573.98 385.50,577.89 C382.20,581.80 377.92,585.73 376.00,586.61 C374.08,587.49 370.82,589.35 368.77,590.73 C366.71,592.12 363.92,593.25 362.57,593.25 C359.18,593.25 358.84,596.51 361.72,601.23 C362.97,603.28 364.00,605.27 364.00,605.65 C364.00,607.31 351.35,587.66 323.07,542.03 ZM 414.59 715.65 C415.00,714.75 414.84,713.41 413.81,712.38 C413.01,711.58 408.21,709.87 403.15,708.59 C398.08,707.31 393.13,705.52 392.14,704.63 C391.15,703.73 389.85,703.00 389.25,703.00 C388.66,703.00 388.02,702.63 387.83,702.17 C387.65,701.71 385.02,700.15 382.00,698.69 C378.98,697.24 375.83,695.66 375.00,695.19 C374.17,694.71 372.15,693.66 370.50,692.84 C368.18,691.69 367.54,690.76 367.69,688.68 C367.84,686.53 367.45,686.00 365.69,686.02 C349.63,686.14 322.40,684.86 314.65,683.61 C298.17,680.95 281.71,674.81 280.45,670.84 C280.15,669.89 278.99,668.81 277.87,668.46 C276.76,668.11 276.08,667.59 276.35,667.32 C276.58,667.08 272.95,664.93 267.84,662.23 C281.46,668.69 295.12,673.32 308.00,675.72 C322.94,678.52 360.60,678.21 375.76,675.18 C390.36,672.25 404.26,668.19 415.50,663.56 C427.49,658.62 427.90,658.49 425.00,660.64 C423.06,662.08 422.57,663.23 422.81,665.76 C423.08,668.50 422.64,669.30 420.09,670.76 C416.99,672.53 416.74,673.21 414.53,686.00 C413.65,691.04 413.65,711.17 414.53,713.32 C414.90,714.25 414.89,715.06 414.59,715.65 ZM 434.74 824.18 C434.85,822.21 434.36,820.02 433.34,817.90 C431.81,814.74 430.40,813.64 425.00,811.38 C413.74,806.68 397.22,798.30 386.37,791.78 C373.47,784.04 351.22,767.55 342.80,759.50 C336.49,753.47 327.63,741.70 328.64,740.69 C328.94,740.40 327.25,737.98 324.89,735.33 C321.49,731.51 321.95,731.80 327.08,736.75 C337.22,746.53 336.23,744.08 325.48,732.77 C322.66,729.81 319.34,726.14 316.33,722.68 C325.45,733.02 337.93,745.75 346.00,752.71 C376.13,778.73 412.02,799.06 449.75,811.50 C458.11,814.25 460.09,815.41 455.45,814.82 C453.67,814.60 452.33,815.24 451.08,816.90 C449.36,819.17 449.01,819.24 444.69,818.15 C436.94,816.20 435.83,816.62 434.74,824.18 ZM 360.64 647.82 C362.72,647.27 364.28,646.62 365.14,645.88 C366.33,644.85 368.02,643.99 368.90,643.98 C370.21,643.97 370.25,643.81 369.11,643.09 C368.35,642.60 364.30,641.89 360.11,641.50 C352.14,640.76 348.54,639.55 349.53,637.95 C349.85,637.43 349.39,637.00 348.49,637.00 C346.43,637.00 337.00,632.97 337.00,632.09 C337.00,631.72 336.12,631.36 335.04,631.28 C331.25,630.99 313.61,619.50 307.38,613.26 C299.23,605.10 291.75,590.04 296.22,590.79 C297.41,590.98 297.38,590.27 295.72,587.14 C295.79,587.26 295.85,587.38 295.92,587.50 C302.85,600.10 316.74,613.30 330.20,620.10 C346.79,628.48 358.30,631.09 382.00,631.88 L 400.50 632.50 L 393.00 636.72 C383.89,641.85 372.47,645.66 360.64,647.82 ZM 361.50 459.00 C361.84,459.55 362.57,460.00 363.12,460.00 C363.42,460.00 363.61,459.86 363.66,459.64 C366.41,461.62 368.00,462.85 368.00,463.04 C368.00,463.94 344.87,464.49 343.92,463.62 C344.15,463.83 348.53,464.00 353.67,464.00 C360.93,464.00 363.00,463.69 363.00,462.62 C363.00,461.86 362.33,460.69 361.51,460.01 C360.69,459.33 360.23,458.44 360.48,458.04 C360.67,457.72 354.16,453.02 344.94,446.76 C351.55,451.20 357.36,455.19 361.50,458.11 C361.28,458.27 361.26,458.61 361.50,459.00 ZM 236.59 688.59 C251.67,716.22 273.91,746.75 297.48,770.45 C273.88,746.72 251.76,716.66 236.59,688.59 ZM 356.74 419.73 C362.53,424.24 367.12,427.64 369.10,428.89 C368.88,429.16 368.72,429.27 368.65,429.21 C368.20,428.88 363.38,425.04 356.74,419.73 ZM 252.36 654.08 C243.90,649.39 238.30,645.60 229.80,639.17 C228.69,638.33 227.68,637.56 226.75,636.85 C227.61,637.49 228.50,638.16 229.42,638.85 C236.83,644.45 244.53,649.55 252.36,654.08 ZM 401.76 175.06 C393.86,175.38 388.34,175.75 387.22,176.08 C387.43,175.98 387.64,175.90 387.85,175.82 C388.77,175.50 393.97,175.25 401.76,175.06 ZM 219.61 631.61 C218.40,630.85 217.70,630.61 217.32,630.86 C216.63,631.32 217.03,633.43 217.36,637.01 C216.74,632.94 216.58,630.00 217.20,630.00 C217.30,630.00 218.19,630.60 219.61,631.61 ZM 295.12 586.03 C294.99,585.79 294.86,585.54 294.71,585.29 C291.21,578.99 288.76,572.71 287.19,565.57 C288.80,572.56 291.34,578.95 295.12,586.03 ZM 378.02 710.75 C386.69,712.39 395.31,713.88 401.03,714.71 C395.66,714.00 387.34,712.56 378.02,710.75 ZM 310.40 521.57 C312.81,525.32 315.67,529.96 319.17,535.74 C316.95,532.14 314.63,528.39 312.23,524.50 C311.59,523.47 310.98,522.50 310.40,521.57 ZM 301.29 418.35 C282.54,406.76 271.86,401.59 259.50,397.28 C271.92,401.61 282.42,406.67 301.29,418.35 ZM 322.31 648.51 C327.36,649.43 333.48,649.86 339.51,649.88 C333.49,649.93 327.67,649.49 322.31,648.51 ZM 383.43 179.38 C380.94,182.74 377.89,188.78 373.67,198.55 C378.04,188.43 380.92,182.64 383.43,179.38 ZM 330.33 699.94 C336.57,701.65 342.16,703.05 349.12,704.66 C345.00,703.72 341.07,702.78 337.50,701.88 C335.92,701.49 333.39,700.80 330.33,699.94 ZM 275.91 368.14 C286.76,371.60 296.83,376.30 308.89,383.96 C296.83,376.33 286.69,371.58 275.91,368.14 ZM 298.07 698.40 C294.60,693.15 292.12,689.00 292.63,689.00 C292.15,689.00 294.66,693.20 298.07,698.40 ZM 431.07 843.13 C431.04,842.44 431.34,841.27 431.79,840.38 C431.41,841.41 431.13,842.47 431.07,843.13 ZM 411.12 716.12 C411.60,716.24 411.99,716.35 412.24,716.46 C412.46,716.56 412.68,716.62 412.88,716.64 C412.42,716.64 411.90,716.51 411.36,716.23 C411.29,716.20 411.21,716.16 411.12,716.12 ZM 433.41 833.77 C433.42,833.68 433.43,833.59 433.45,833.50 C433.72,831.44 434.09,828.81 434.38,826.83 C433.97,829.87 433.67,832.09 433.41,833.77 ZM 430.79 847.03 C431.30,846.70 431.36,845.88 431.22,844.49 C431.44,845.90 431.38,846.72 430.79,847.03 ZM 286.20 516.46 C286.91,508.95 287.77,502.90 288.40,502.26 C287.78,502.88 286.92,508.96 286.20,516.46 ZM 294.26 504.26 C296.00,505.06 297.52,505.92 299.06,507.15 C297.56,505.96 296.01,505.06 294.26,504.26 ZM 432.58 838.04 C432.74,837.43 432.89,836.75 433.03,836.04 C432.88,836.84 432.74,837.47 432.58,838.04 Z" fill="rgba(228,198,5,1)"/>
<path d="M 110.06 541.06 L 107.99 538.99 L 108.50 175.50 L 151.12 175.24 C158.37,175.20 164.97,175.17 170.97,175.17 C167.04,175.34 166.00,175.70 166.00,176.43 C166.00,177.67 163.16,179.30 160.73,179.45 C159.03,179.56 151.00,188.44 151.00,190.21 C151.00,191.25 149.85,193.17 148.44,194.47 C146.47,196.30 145.65,198.38 144.94,203.45 C143.49,213.69 145.43,265.00 147.27,265.00 C147.81,265.00 147.67,265.69 146.97,266.53 C145.98,267.73 145.95,268.90 146.85,271.90 C147.48,274.01 148.00,276.89 148.00,278.31 C148.00,279.72 148.50,281.19 149.11,281.57 C149.89,282.05 149.86,282.47 148.98,283.01 C148.27,283.45 148.08,284.32 148.54,285.06 C148.97,285.77 149.44,288.80 149.58,291.81 C149.72,294.82 150.27,297.56 150.79,297.89 C151.88,298.58 152.81,302.44 153.47,309.00 C153.72,311.48 154.18,314.62 154.50,316.00 C154.82,317.38 155.26,320.16 155.47,322.18 C155.68,324.20 156.34,326.76 156.93,327.86 C157.52,328.97 158.02,332.04 158.04,334.68 C158.07,337.33 158.74,341.30 159.53,343.50 C160.32,345.70 160.98,350.07 160.98,353.20 C160.99,356.71 161.49,359.21 162.27,359.70 C164.22,360.93 166.11,365.81 164.92,366.55 C163.95,367.15 164.63,370.98 165.88,372.00 C167.28,373.13 173.33,387.77 173.53,390.50 C173.77,393.66 176.58,402.97 178.14,405.75 C179.14,407.54 179.77,409.00 179.54,409.00 C179.30,409.00 180.15,411.36 181.43,414.25 C182.70,417.14 184.08,421.48 184.49,423.90 C184.99,426.88 186.26,429.33 188.45,431.51 C190.42,433.49 192.15,436.62 192.93,439.62 C193.62,442.30 194.67,445.51 195.26,446.75 C195.85,447.99 196.65,449.00 197.03,449.00 C197.41,449.00 198.02,434.71 198.37,417.25 C198.53,409.32 198.74,399.24 198.95,389.04 C198.63,407.28 198.29,430.03 197.90,458.00 C197.09,515.76 196.43,539.83 195.63,540.64 C194.85,541.42 181.89,541.98 153.31,542.45 C112.57,543.12 112.10,543.10 110.06,541.06 ZM 238.41 395.17 C237.82,395.22 237.30,395.28 236.85,395.37 C231.69,396.34 232.00,399.33 237.60,402.61 C238.61,403.20 239.65,403.95 240.57,404.73 C239.03,403.81 236.71,402.87 233.79,401.98 C223.74,398.93 222.60,397.65 228.46,396.01 C230.46,395.45 234.18,395.19 238.41,395.17 ZM 242.96 407.15 C243.15,407.41 243.30,407.65 243.42,407.86 C244.75,410.47 247.04,416.08 248.62,420.36 C246.91,415.82 244.34,409.73 242.96,407.15 ZM 265.04 399.32 C263.19,398.61 261.36,397.95 259.50,397.33 C258.32,396.93 256.70,396.56 254.84,396.25 C256.76,396.54 258.38,396.89 259.50,397.28 C261.37,397.93 263.21,398.60 265.04,399.32 ZM 383.88 254.00 C383.48,254.00 381.37,257.29 379.58,260.41 C381.31,257.32 383.44,254.00 383.88,254.00 ZM 215.53 356.00 C213.40,350.73 210.22,343.62 207.37,337.59 C210.21,343.60 213.38,350.69 215.53,356.00 ZM 376.91 266.24 C376.81,266.45 376.60,266.69 376.32,266.89 C376.54,266.73 376.75,266.49 376.91,266.24 ZM 201.05 325.53 C201.03,325.52 201.01,325.53 200.99,325.55 C201.00,325.52 201.02,325.51 201.04,325.52 C201.04,325.53 201.05,325.53 201.05,325.53 Z" fill="rgba(223,47,43,1)"/>
<path d="M 248.21 225.46 C249.85,227.32 250.00,227.32 250.00,225.50 L 250.00 225.49 C252.51,230.86 255.82,237.98 259.30,245.50 C277.06,283.90 298.05,329.10 302.93,339.46 C305.08,344.04 306.17,346.69 307.36,346.73 C308.89,346.79 310.60,342.53 314.98,332.50 C321.92,316.62 328.73,301.17 340.54,274.50 C345.89,262.40 351.29,250.02 352.54,247.00 C353.78,243.98 358.27,233.62 362.51,224.00 C366.75,214.38 371.77,202.92 373.67,198.55 C380.21,183.41 383.93,177.22 387.15,176.10 C388.80,175.52 404.92,174.78 423.61,174.43 L 457.10 173.79 L 454.80 176.20 C453.52,177.54 449.61,179.45 446.00,180.52 C442.42,181.57 438.91,183.01 438.18,183.71 C437.45,184.42 436.29,185.00 435.59,185.00 C434.19,185.00 424.96,191.79 423.71,193.73 C423.28,194.41 421.57,196.43 419.91,198.23 C418.25,200.03 416.15,203.07 415.25,205.00 C414.35,206.93 413.04,208.85 412.34,209.28 C408.89,211.40 400.00,221.72 400.00,223.60 C400.00,224.77 398.88,227.37 397.51,229.39 C396.14,231.40 394.72,234.26 394.35,235.74 C393.98,237.22 392.85,239.32 391.84,240.41 C390.83,241.49 390.00,242.99 390.00,243.74 C390.00,244.48 388.85,246.09 387.45,247.30 C386.05,248.51 384.83,250.51 384.74,251.75 C384.65,252.99 384.26,254.00 383.88,254.00 C383.12,254.00 377.29,263.96 377.22,265.39 C377.19,265.88 376.79,266.55 376.32,266.89 C375.85,267.22 374.88,269.75 374.17,272.50 C373.46,275.25 372.05,278.40 371.05,279.50 C370.04,280.60 368.97,283.08 368.66,285.00 C367.48,292.34 366.72,295.53 365.93,296.53 C365.49,297.10 364.90,298.75 364.64,300.19 C364.38,301.64 363.68,303.73 363.08,304.85 C362.49,305.96 362.00,309.17 362.00,311.98 C362.00,314.80 361.30,318.46 360.43,320.13 C359.05,322.80 357.62,335.94 358.10,341.50 C358.20,342.60 358.23,345.30 358.17,347.50 C358.11,349.70 358.05,353.03 358.04,354.91 C358.03,356.78 357.31,359.11 356.43,360.07 C355.27,361.35 355.11,362.33 355.82,363.67 C356.35,364.68 357.71,369.87 358.84,375.20 C359.97,380.54 361.62,386.02 362.51,387.37 C363.99,389.63 363.99,389.86 362.51,390.17 C361.13,390.45 361.26,391.19 363.46,395.50 C365.27,399.02 366.05,402.20 366.12,406.25 L 366.21 412.00 L 369.61 412.00 C371.47,412.00 372.98,412.34 372.96,412.75 C372.83,415.54 369.92,425.40 368.83,426.74 C367.68,428.15 367.74,428.29 369.25,427.72 C371.01,427.06 371.74,428.43 370.16,429.40 C369.69,429.69 359.86,422.34 348.30,413.06 C314.31,385.76 296.51,374.72 275.91,368.14 C271.72,366.80 267.68,365.73 263.72,364.92 C268.49,365.85 273.27,367.13 278.10,368.77 L 286.71 371.68 L 285.61 368.78 C284.79,366.61 282.54,364.84 276.57,361.69 C269.32,357.87 256.00,347.00 256.00,344.90 C256.00,344.42 254.62,341.21 252.94,337.77 C251.26,334.32 249.68,330.01 249.44,328.18 C249.19,326.35 248.59,324.10 248.10,323.18 C247.61,322.26 246.90,318.35 246.53,314.50 C246.15,310.65 244.72,302.33 243.34,296.00 C241.75,288.73 240.98,282.55 241.24,279.20 C241.46,276.28 241.33,273.71 240.96,273.47 C240.58,273.24 240.49,271.13 240.74,268.78 C241.28,263.85 241.91,252.05 242.26,240.50 C242.47,233.36 242.73,232.40 244.68,231.54 C246.38,230.80 246.75,229.99 246.33,227.91 C246.04,226.45 246.34,224.24 247.00,223.00 C247.79,221.52 247.83,220.99 247.10,221.44 C246.49,221.81 245.93,221.53 245.85,220.81 C245.77,220.09 245.63,218.82 245.54,218.00 C245.42,216.88 244.04,213.22 242.10,208.64 C243.70,212.18 245.04,215.08 245.52,216.00 C245.84,216.63 247.32,219.75 249.48,224.38 C249.21,224.14 248.85,224.00 248.46,224.00 C247.19,224.00 247.15,224.25 248.21,225.46 ZM 230.50 641.00 C230.84,641.55 231.57,642.00 232.12,642.00 C232.57,642.00 232.76,641.70 232.64,641.30 C242.88,648.90 249.38,652.76 264.68,660.59 C271.37,664.01 276.63,667.04 276.35,667.32 C276.08,667.59 276.76,668.11 277.87,668.46 C278.99,668.81 280.15,669.89 280.45,670.84 C281.71,674.81 298.17,680.95 314.65,683.61 C322.40,684.86 349.63,686.14 365.69,686.02 C367.45,686.00 367.84,686.53 367.69,688.68 C367.54,690.76 368.18,691.69 370.50,692.84 C372.15,693.66 374.17,694.71 375.00,695.19 C375.83,695.66 378.98,697.24 382.00,698.69 C385.02,700.15 387.65,701.71 387.83,702.17 C388.02,702.63 388.66,703.00 389.25,703.00 C389.85,703.00 391.15,703.73 392.14,704.63 C393.13,705.52 398.08,707.31 403.15,708.59 C408.21,709.87 413.01,711.58 413.81,712.38 C415.78,714.35 414.58,717.46 412.24,716.46 C411.28,716.05 408.48,715.54 406.00,715.33 C399.08,714.73 374.07,710.24 359.02,706.90 C339.50,702.57 331.70,700.53 311.39,694.43 C301.43,691.45 292.99,689.00 292.63,689.00 C291.60,689.00 302.69,705.78 309.50,714.52 C312.94,718.93 320.13,727.14 325.48,732.77 C336.23,744.08 337.22,746.53 327.08,736.75 C321.95,731.80 321.49,731.51 324.89,735.33 C327.25,737.98 328.94,740.40 328.64,740.69 C327.63,741.70 336.49,753.47 342.80,759.50 C351.22,767.55 373.47,784.04 386.37,791.78 C397.22,798.30 413.74,806.68 425.00,811.38 C430.40,813.64 431.81,814.74 433.34,817.90 C434.53,820.36 434.98,822.89 434.64,825.10 C434.35,826.97 433.81,830.75 433.45,833.50 C433.08,836.25 432.36,839.29 431.85,840.26 C431.34,841.23 430.99,842.58 431.08,843.26 C431.69,847.99 431.34,848.11 424.51,845.54 C419.69,843.73 418.03,843.31 414.57,843.75 C415.48,843.55 416.15,843.37 416.37,843.24 C416.85,842.96 413.57,840.82 409.08,838.48 C404.59,836.14 400.14,833.56 399.21,832.74 C398.27,831.91 396.12,830.54 394.43,829.69 C392.74,828.83 389.32,826.13 386.83,823.67 C384.35,821.22 380.78,818.42 378.90,817.46 C377.03,816.49 374.60,814.91 373.50,813.94 C357.33,799.69 352.29,794.92 345.50,787.43 C341.10,782.58 335.92,776.97 334.00,774.97 C329.33,770.12 317.25,754.85 309.52,744.00 C308.14,742.08 306.17,739.38 305.14,738.00 C301.88,733.67 295.00,723.05 295.00,722.36 C295.00,721.99 293.95,720.30 292.67,718.59 C290.34,715.51 284.20,705.46 278.50,695.42 C276.85,692.51 271.90,686.00 267.50,680.95 C263.10,675.89 259.20,670.98 258.84,670.02 C258.47,669.07 253.97,665.00 248.84,660.99 C243.70,656.98 238.47,652.53 237.22,651.10 C234.12,647.58 229.53,640.65 229.75,639.85 C229.84,639.55 227.73,637.69 225.18,635.65 C226.50,636.66 228.03,637.83 229.80,639.17 C230.17,639.45 230.54,639.73 230.90,640.00 C230.90,640.00 230.89,640.00 230.88,640.00 C230.33,640.00 230.16,640.45 230.50,641.00 ZM 324.50 648.87 C325.79,648.87 327.11,648.67 329.30,648.37 C331.82,648.03 334.12,647.13 334.41,646.37 C335.00,644.84 332.62,643.69 318.14,638.47 C295.98,630.49 280.53,617.70 271.11,599.55 C267.13,591.89 265.61,587.24 265.83,583.50 C265.93,581.85 265.55,578.92 264.99,577.00 C260.63,562.19 259.23,507.49 262.93,496.61 C263.72,494.26 264.03,490.63 263.71,487.47 C263.40,484.49 263.61,481.79 264.18,481.22 C265.31,480.09 261.54,479.01 245.72,475.95 C234.73,473.83 225.90,470.98 226.63,469.79 C226.90,469.36 226.30,468.95 225.31,468.88 C224.31,468.82 224.85,468.41 226.50,467.97 C227.39,467.73 227.92,467.56 228.04,467.46 C228.89,467.57 229.73,467.72 230.50,467.89 C233.25,468.48 240.23,469.42 246.00,469.97 C251.77,470.52 260.55,471.47 265.50,472.08 C270.45,472.69 280.35,473.76 287.50,474.47 C294.65,475.17 299.15,475.81 297.50,475.89 C295.17,476.00 294.84,476.25 296.00,477.00 C297.33,477.86 297.33,477.98 296.00,478.04 C293.56,478.15 305.52,481.71 310.72,482.41 C317.36,483.31 325.16,485.09 327.27,486.18 C328.92,487.03 328.93,487.21 327.40,488.74 C326.06,490.09 325.89,491.55 326.46,496.94 C326.84,500.55 327.52,508.45 327.97,514.50 C328.42,520.55 329.35,526.85 330.05,528.50 C330.74,530.15 331.58,535.62 331.90,540.65 C332.49,549.58 332.45,549.78 330.50,548.74 C328.78,547.82 328.68,547.89 329.73,549.17 C330.73,550.38 330.69,550.67 329.53,550.67 C328.74,550.67 328.30,550.32 328.56,549.90 C328.82,549.48 327.89,547.90 326.49,546.39 C325.09,544.89 322.98,542.04 321.79,540.08 C304.82,511.90 301.50,507.58 294.26,504.26 C291.29,502.90 288.66,502.01 288.40,502.26 C287.11,503.55 284.91,527.24 284.89,540.00 C284.86,559.85 287.61,572.54 294.71,585.29 C297.34,590.00 297.61,591.02 296.22,590.79 C291.75,590.04 299.23,605.10 307.38,613.26 C313.61,619.50 331.25,630.99 335.04,631.28 C336.12,631.36 337.00,631.72 337.00,632.09 C337.00,632.97 346.43,637.00 348.49,637.00 C349.39,637.00 349.85,637.43 349.53,637.95 C348.54,639.55 352.14,640.76 360.11,641.50 C364.30,641.89 368.35,642.60 369.11,643.09 C370.25,643.81 370.21,643.97 368.90,643.98 C368.02,643.99 366.33,644.85 365.14,645.88 C360.91,649.54 339.26,651.04 324.50,648.87 ZM 343.92 463.62 C343.69,463.41 336.08,462.70 327.00,462.04 C325.21,461.91 323.07,461.74 320.71,461.53 C320.69,461.39 320.63,461.20 320.50,461.00 C320.14,460.42 321.11,460.00 322.79,460.00 C325.31,460.00 325.69,459.64 325.60,457.31 C325.52,455.02 324.68,454.28 320.00,452.36 C316.98,451.11 313.36,450.07 311.97,450.05 C308.26,449.98 297.96,439.05 294.04,431.02 L 290.87 424.54 L 293.01 420.27 C294.18,417.92 295.66,416.00 296.29,416.00 C296.82,416.00 296.87,415.80 296.41,415.38 C306.72,421.60 319.54,429.87 336.72,441.25 C350.03,450.08 360.73,457.63 360.48,458.04 C360.23,458.44 360.69,459.33 361.51,460.01 C362.33,460.69 363.00,461.86 363.00,462.62 C363.00,463.69 360.93,464.00 353.67,464.00 C348.53,464.00 344.15,463.83 343.92,463.62 ZM 217.44 637.74 C218.11,642.54 219.58,648.97 221.52,654.75 C225.03,665.26 230.19,676.75 236.59,688.59 C225.92,669.03 218.85,650.93 217.44,637.74 ZM 361.50 459.00 C361.16,458.45 361.33,458.00 361.88,458.00 C362.43,458.00 363.16,458.45 363.50,459.00 C363.84,459.55 363.67,460.00 363.12,460.00 C362.57,460.00 361.84,459.55 361.50,459.00 ZM 296.13 640.01 C279.35,631.83 265.45,619.02 255.74,602.50 C265.27,618.72 279.50,631.80 296.13,640.01 ZM 268.10 400.54 C273.92,402.94 280.02,405.94 287.48,410.15 C285.85,409.29 283.98,408.32 281.88,407.25 C276.21,404.35 271.80,402.18 268.10,400.54 ZM 213.34 176.03 C212.52,175.97 211.65,175.92 210.72,175.87 C204.00,175.48 191.19,175.13 182.25,175.08 C196.19,175.15 206.32,175.45 213.34,176.03 ZM 219.50 467.50 L 222.50 467.15 C223.43,467.05 224.99,467.10 226.67,467.28 C226.12,467.29 225.40,467.31 224.50,467.34 L 219.50 467.50 ZM 233.38 398.80 C232.69,397.19 233.83,395.93 236.85,395.37 C237.43,395.26 238.15,395.18 238.97,395.14 C235.21,395.42 233.40,396.36 233.27,398.00 C233.26,398.26 233.29,398.53 233.38,398.80 ZM 406.54 847.40 C409.47,848.56 410.05,848.35 407.66,846.54 C406.14,845.39 406.22,845.13 409.52,844.62 C406.48,845.24 406.41,845.59 407.71,846.58 C410.07,848.37 409.47,848.56 406.54,847.40 ZM 269.85 455.95 C264.61,455.10 264.03,454.46 263.27,453.00 C262.39,451.32 260.75,447.84 259.01,444.03 C260.75,447.84 262.40,451.33 263.27,453.00 C263.95,454.29 264.69,455.03 269.85,455.95 ZM 217.27 630.90 C217.05,631.46 216.98,632.52 217.05,633.92 C216.89,632.27 216.86,631.24 217.27,630.90 ZM 226.44 179.20 C225.63,178.56 224.73,178.05 223.68,177.65 C224.57,177.94 225.25,178.26 225.72,178.61 C225.96,178.78 226.19,178.97 226.44,179.20 Z" fill="rgba(238,147,5,1)"/>
<path d="M 391.50 840.17 C356.82,822.19 326.74,799.88 297.48,770.45 C263.92,736.71 233.37,690.17 221.52,654.75 C217.65,643.21 215.65,629.07 218.09,630.53 C221.67,632.68 229.92,639.26 229.75,639.85 C229.53,640.65 234.12,647.58 237.22,651.10 C238.47,652.53 243.70,656.98 248.84,660.99 C253.97,665.00 258.47,669.07 258.84,670.02 C259.20,670.98 263.10,675.89 267.50,680.95 C271.90,686.00 276.85,692.51 278.50,695.42 C284.20,705.46 290.34,715.51 292.67,718.59 C293.95,720.30 295.00,721.99 295.00,722.36 C295.00,723.05 301.88,733.67 305.14,738.00 C306.17,739.38 308.14,742.08 309.52,744.00 C317.25,754.85 329.33,770.12 334.00,774.97 C335.92,776.97 341.10,782.58 345.50,787.43 C352.29,794.92 357.33,799.69 373.50,813.94 C374.60,814.91 377.03,816.49 378.90,817.46 C380.78,818.42 384.35,821.22 386.83,823.67 C389.32,826.13 392.74,828.83 394.43,829.69 C396.12,830.54 398.27,831.91 399.21,832.74 C400.14,833.56 404.59,836.14 409.08,838.48 C413.57,840.82 416.85,842.96 416.37,843.24 C415.89,843.52 413.32,844.06 410.66,844.45 C406.25,845.09 405.99,845.27 407.66,846.54 C412.42,850.15 405.39,847.38 391.50,840.17 ZM 313.50 646.53 C289.52,640.19 268.46,624.14 255.74,602.50 C243.11,581.02 237.05,554.80 237.02,521.42 L 237.00 503.33 L 229.32 500.42 C220.11,496.92 220.11,496.92 219.75,479.50 L 219.50 467.50 L 224.50 467.34 C228.65,467.20 228.99,467.31 226.50,467.97 C224.85,468.41 224.31,468.82 225.31,468.88 C226.30,468.95 226.90,469.36 226.63,469.79 C225.90,470.98 234.73,473.83 245.72,475.95 C261.54,479.01 265.31,480.09 264.18,481.22 C263.61,481.79 263.40,484.49 263.71,487.47 C264.03,490.63 263.72,494.26 262.93,496.61 C259.23,507.49 260.63,562.19 264.99,577.00 C265.55,578.92 265.93,581.85 265.83,583.50 C265.61,587.24 267.13,591.89 271.11,599.55 C280.53,617.70 295.98,630.49 318.14,638.47 C332.62,643.69 335.00,644.84 334.41,646.37 C334.12,647.13 331.82,648.03 329.30,648.37 C323.29,649.20 323.86,649.26 313.50,646.53 ZM 230.50 641.00 C230.16,640.45 230.33,640.00 230.88,640.00 C231.43,640.00 232.16,640.45 232.50,641.00 C232.84,641.55 232.67,642.00 232.12,642.00 C231.57,642.00 230.84,641.55 230.50,641.00 ZM 307.00 460.41 C266.37,455.97 264.67,455.68 263.27,453.00 C260.97,448.60 253.31,431.58 252.57,429.25 C252.18,428.01 251.52,427.00 251.10,427.00 C250.68,427.00 250.33,426.44 250.33,425.75 C250.33,424.38 245.59,412.11 243.42,407.86 C242.67,406.42 240.06,404.05 237.60,402.61 C234.50,400.80 233.17,399.38 233.27,398.00 C233.47,395.37 237.99,394.55 247.89,395.32 C258.55,396.15 263.75,397.98 281.88,407.25 C293.91,413.40 298.19,416.00 296.29,416.00 C295.66,416.00 294.18,417.92 293.01,420.27 L 290.87 424.54 L 294.04 431.02 C297.96,439.05 308.26,449.98 311.97,450.05 C313.36,450.07 316.98,451.11 320.00,452.36 C324.68,454.28 325.52,455.02 325.60,457.31 C325.69,459.64 325.31,460.00 322.79,460.00 C321.11,460.00 320.14,460.42 320.50,461.00 C320.84,461.55 320.75,461.95 320.31,461.89 C319.86,461.83 313.88,461.16 307.00,460.41 ZM 195.26 446.75 C194.67,445.51 193.62,442.30 192.93,439.62 C192.15,436.62 190.42,433.49 188.45,431.51 C186.26,429.33 184.99,426.88 184.49,423.90 C184.08,421.48 182.70,417.14 181.43,414.25 C180.15,411.36 179.30,409.00 179.54,409.00 C179.77,409.00 179.14,407.54 178.14,405.75 C176.58,402.97 173.77,393.66 173.53,390.50 C173.33,387.77 167.28,373.13 165.88,372.00 C164.63,370.98 163.95,367.15 164.92,366.55 C166.11,365.81 164.22,360.93 162.27,359.70 C161.49,359.21 160.99,356.71 160.98,353.20 C160.98,350.07 160.32,345.70 159.53,343.50 C158.74,341.30 158.07,337.33 158.04,334.68 C158.02,332.04 157.52,328.97 156.93,327.86 C156.34,326.76 155.68,324.20 155.47,322.18 C155.26,320.16 154.82,317.38 154.50,316.00 C154.18,314.62 153.72,311.48 153.47,309.00 C152.81,302.44 151.88,298.58 150.79,297.89 C150.27,297.56 149.72,294.82 149.58,291.81 C149.44,288.80 148.97,285.77 148.54,285.06 C148.08,284.32 148.27,283.45 148.98,283.01 C149.86,282.47 149.89,282.05 149.11,281.57 C148.50,281.19 148.00,279.72 148.00,278.31 C148.00,276.89 147.48,274.01 146.85,271.90 C145.95,268.90 145.98,267.73 146.97,266.53 C147.67,265.69 147.81,265.00 147.27,265.00 C145.43,265.00 143.49,213.69 144.94,203.45 C145.65,198.38 146.47,196.30 148.44,194.47 C149.85,193.17 151.00,191.25 151.00,190.21 C151.00,188.44 159.03,179.56 160.73,179.45 C163.16,179.30 166.00,177.67 166.00,176.43 C166.00,175.24 168.77,175.01 182.25,175.08 C191.19,175.13 204.00,175.48 210.72,175.87 C225.15,176.69 226.82,177.55 231.71,186.57 C236.79,195.97 245.23,215.14 245.54,218.00 C245.63,218.82 245.77,220.09 245.85,220.81 C245.93,221.53 246.49,221.81 247.10,221.44 C247.83,220.99 247.79,221.52 247.00,223.00 C246.34,224.24 246.04,226.45 246.33,227.91 C246.75,229.99 246.38,230.80 244.68,231.54 C242.73,232.40 242.47,233.36 242.26,240.50 C241.91,252.05 241.28,263.85 240.74,268.78 C240.49,271.13 240.58,273.24 240.96,273.47 C241.33,273.71 241.46,276.28 241.24,279.20 C240.98,282.55 241.75,288.73 243.34,296.00 C244.72,302.33 246.15,310.65 246.53,314.50 C246.90,318.35 247.61,322.26 248.10,323.18 C248.59,324.10 249.19,326.35 249.44,328.18 C249.68,330.01 251.26,334.32 252.94,337.77 C254.62,341.21 256.00,344.42 256.00,344.90 C256.00,347.00 269.32,357.87 276.57,361.69 C282.54,364.84 284.79,366.61 285.61,368.78 L 286.71 371.68 L 278.10 368.77 C261.44,363.12 245.42,361.74 228.57,364.50 C223.65,365.30 219.57,365.86 219.50,365.73 C219.43,365.60 217.64,361.23 215.53,356.00 C211.07,344.96 202.15,326.21 201.04,325.52 C200.62,325.26 199.99,338.65 199.64,355.28 C199.30,371.90 198.72,399.79 198.37,417.25 C198.02,434.71 197.41,449.00 197.03,449.00 C196.65,449.00 195.85,447.99 195.26,446.75 ZM 248.21 225.46 C247.15,224.25 247.19,224.00 248.46,224.00 C249.31,224.00 250.00,224.68 250.00,225.50 C250.00,227.32 249.85,227.32 248.21,225.46 Z" fill="rgba(239,91,12,1)"/>
</g>
</svg>